<?xml version="1.0" encoding="UTF-8" standalone="no"?>
<!-- Created with Inkscape (http://www.inkscape.org/) -->

<svg
   xmlns:dc="http://purl.org/dc/elements/1.1/"
   xmlns:cc="http://creativecommons.org/ns#"
   xmlns:rdf="http://www.w3.org/1999/02/22-rdf-syntax-ns#"
   xmlns:svg="http://www.w3.org/2000/svg"
   xmlns="http://www.w3.org/2000/svg"
   xmlns:sodipodi="http://sodipodi.sourceforge.net/DTD/sodipodi-0.dtd"
   xmlns:inkscape="http://www.inkscape.org/namespaces/inkscape"
   width="125.83022mm"
   height="165.59953mm"
   viewBox="0 0 125.83022 165.59953"
   version="1.1"
   id="svg8"
   inkscape:version="0.92.2 5c3e80d, 2017-08-06"
   sodipodi:docname="barContainer.svg">
  <defs
     id="defs2" />
  <sodipodi:namedview
     id="base"
     pagecolor="#ffffff"
     bordercolor="#666666"
     borderopacity="1.0"
     inkscape:pageopacity="0.0"
     inkscape:pageshadow="2"
     inkscape:zoom="0.64"
     inkscape:cx="341.68176"
     inkscape:cy="302.92899"
     inkscape:document-units="mm"
     inkscape:current-layer="layer1"
     showgrid="false"
     fit-margin-top="10"
     fit-margin-left="10"
     fit-margin-right="10"
     fit-margin-bottom="10"
     inkscape:window-width="1440"
     inkscape:window-height="772"
     inkscape:window-x="0"
     inkscape:window-y="1"
     inkscape:window-maximized="1"
     inkscape:snap-midpoints="true" />
  <metadata
     id="metadata5">
    <rdf:RDF>
      <cc:Work
         rdf:about="">
        <dc:format>image/svg+xml</dc:format>
        <dc:type
           rdf:resource="http://purl.org/dc/dcmitype/StillImage" />
        <dc:title></dc:title>
      </cc:Work>
    </rdf:RDF>
  </metadata>
  <g
     inkscape:label="レイヤー 1"
     inkscape:groupmode="layer"
     id="layer1"
     transform="translate(-79.297636,-32.439795)">
    <path
       style="fill:#2a7fff;fill-opacity:0.94117647;stroke:none;stroke-width:1;stroke-miterlimit:4;stroke-dasharray:none;stroke-dashoffset:0;stroke-opacity:0.94117647"
       d="M 90.622102,58.317188 H 107.72735 V 167.36314 H 90.622102 Z"
       id="rect815"
       inkscape:connector-curvature="0" />
    <g
       aria-label="Name
"
       transform="matrix(0.26458333,0,0,0.26458333,42.634852,-18.185454)"
       style="font-style:normal;font-weight:normal;font-size:16px;line-height:1.25;font-family:sans-serif;letter-spacing:0px;word-spacing:0px;fill:#000000;fill-opacity:1;stroke:none"
       id="flowRoot883">
      <path
         d="m 176.36328,728.67318 h 3.54167 l 8.61979,16.26302 v -16.26302 h 2.55208 v 19.4401 h -3.54166 l -8.6198,-16.26302 v 16.26302 h -2.55208 z"
         style="font-size:26.66666794px"
         id="path1265"
         inkscape:connector-curvature="0" />
      <path
         d="m 202.83464,740.78255 q -2.90365,0 -4.02344,0.66407 -1.11979,0.66406 -1.11979,2.26562 0,1.27604 0.83333,2.03125 0.84636,0.74219 2.29167,0.74219 1.99219,0 3.1901,-1.40625 1.21094,-1.41927 1.21094,-3.76302 v -0.53386 z m 4.77864,-0.98958 v 8.32031 h -2.39583 v -2.21354 q -0.82031,1.32813 -2.04427,1.96615 -1.22396,0.625 -2.99479,0.625 -2.23959,0 -3.56771,-1.25 -1.31511,-1.26302 -1.31511,-3.3724 0,-2.46094 1.64063,-3.71094 1.65365,-1.25 4.92187,-1.25 h 3.35938 v -0.23437 q 0,-1.65365 -1.09375,-2.55209 -1.08073,-0.91145 -3.04688,-0.91145 -1.25,0 -2.43489,0.29948 -1.1849,0.29947 -2.27865,0.89843 v -2.21354 q 1.31511,-0.50781 2.55209,-0.75521 1.23698,-0.26041 2.40885,-0.26041 3.16406,0 4.72656,1.64062 1.5625,1.64063 1.5625,4.97396 z"
         style="font-size:26.66666794px"
         id="path1267"
         inkscape:connector-curvature="0" />
      <path
         d="m 223.91537,736.32943 q 0.89844,-1.61459 2.14844,-2.38281 1.25,-0.76823 2.9427,-0.76823 2.27865,0 3.51563,1.60156 1.23698,1.58854 1.23698,4.53125 v 8.80208 h -2.40886 v -8.72396 q 0,-2.09635 -0.74218,-3.11198 -0.74219,-1.01562 -2.26563,-1.01562 -1.86198,0 -2.94271,1.23698 -1.08073,1.23698 -1.08073,3.37239 v 8.24219 h -2.40885 v -8.72396 q 0,-2.10937 -0.74219,-3.11198 -0.74219,-1.01562 -2.29166,-1.01562 -1.83594,0 -2.91667,1.25 -1.08073,1.23698 -1.08073,3.35937 v 8.24219 h -2.40886 v -14.58333 h 2.40886 v 2.26562 q 0.82031,-1.34114 1.96614,-1.97916 1.14584,-0.63802 2.72136,-0.63802 1.58854,0 2.69531,0.80729 1.11979,0.80729 1.65365,2.34375 z"
         style="font-size:26.66666794px"
         id="path1269"
         inkscape:connector-curvature="0" />
      <path
         d="m 251.02475,740.22266 v 1.17187 h -11.01563 q 0.15625,2.47396 1.48437,3.77604 1.34115,1.28907 3.72396,1.28907 1.38021,0 2.66927,-0.33855 1.30209,-0.33854 2.57813,-1.01562 v 2.26562 q -1.28906,0.54688 -2.64323,0.83334 -1.35417,0.28646 -2.7474,0.28646 -3.48958,0 -5.53385,-2.03125 -2.03125,-2.03125 -2.03125,-5.4948 0,-3.58072 1.92708,-5.67708 1.94011,-2.10937 5.22136,-2.10937 2.94271,0 4.64844,1.90104 1.71875,1.88802 1.71875,5.14323 z m -2.39584,-0.70313 q -0.026,-1.96614 -1.10677,-3.13802 -1.06771,-1.17187 -2.83854,-1.17187 -2.00521,0 -3.21615,1.13281 -1.19791,1.13281 -1.38021,3.1901 z"
         style="font-size:26.66666794px"
         id="path1271"
         inkscape:connector-curvature="0" />
    </g>
    <g
       aria-label="Value
"
       transform="matrix(0.26458333,0,0,0.26458333,43.676994,-144.85013)"
       style="font-style:normal;font-weight:normal;font-size:16px;line-height:1.25;font-family:sans-serif;letter-spacing:0px;word-spacing:0px;fill:#000000;fill-opacity:1;stroke:none;stroke-opacity:0.94117647"
       id="flowRoot883-0">
      <path
         d="m 181.3763,748.11328 -7.42187,-19.4401 h 2.74739 l 6.15886,16.36719 6.17187,-16.36719 h 2.73438 l -7.40886,19.4401 z"
         style="font-size:26.66666794px;stroke:none;stroke-opacity:0.94117647"
         id="path1274"
         inkscape:connector-curvature="0" />
      <path
         d="m 199.03255,740.78255 q -2.90364,0 -4.02343,0.66407 -1.1198,0.66406 -1.1198,2.26562 0,1.27604 0.83334,2.03125 0.84635,0.74219 2.29166,0.74219 1.99219,0 3.19011,-1.40625 1.21094,-1.41927 1.21094,-3.76302 v -0.53386 z m 4.77865,-0.98958 v 8.32031 h -2.39583 v -2.21354 q -0.82032,1.32813 -2.04428,1.96615 -1.22395,0.625 -2.99479,0.625 -2.23958,0 -3.56771,-1.25 -1.3151,-1.26302 -1.3151,-3.3724 0,-2.46094 1.64063,-3.71094 1.65364,-1.25 4.92187,-1.25 h 3.35938 v -0.23437 q 0,-1.65365 -1.09375,-2.55209 -1.08073,-0.91145 -3.04688,-0.91145 -1.25,0 -2.4349,0.29948 -1.18489,0.29947 -2.27864,0.89843 v -2.21354 q 1.3151,-0.50781 2.55208,-0.75521 1.23698,-0.26041 2.40886,-0.26041 3.16406,0 4.72656,1.64062 1.5625,1.64063 1.5625,4.97396 z"
         style="font-size:26.66666794px;stroke:none;stroke-opacity:0.94117647"
         id="path1276"
         inkscape:connector-curvature="0" />
      <path
         d="m 208.75911,727.85286 h 2.39584 v 20.26042 h -2.39584 z"
         style="font-size:26.66666794px;stroke:none;stroke-opacity:0.94117647"
         id="path1278"
         inkscape:connector-curvature="0" />
      <path
         d="m 215.90755,742.35807 v -8.82812 h 2.39584 v 8.73698 q 0,2.07031 0.80729,3.11198 0.80729,1.02864 2.42188,1.02864 1.9401,0 3.05989,-1.23698 1.13281,-1.23698 1.13281,-3.37239 v -8.26823 h 2.39584 v 14.58333 h -2.39584 v -2.23958 q -0.87239,1.32812 -2.03125,1.97917 -1.14583,0.63802 -2.66927,0.63802 -2.51302,0 -3.8151,-1.5625 -1.30209,-1.5625 -1.30209,-4.57032 z"
         style="font-size:26.66666794px;stroke:none;stroke-opacity:0.94117647"
         id="path1280"
         inkscape:connector-curvature="0" />
      <path
         d="m 245.55599,740.22266 v 1.17187 h -11.01562 q 0.15625,2.47396 1.48437,3.77604 1.34115,1.28907 3.72396,1.28907 1.38021,0 2.66927,-0.33855 1.30208,-0.33854 2.57813,-1.01562 v 2.26562 q -1.28907,0.54688 -2.64323,0.83334 -1.35417,0.28646 -2.7474,0.28646 -3.48958,0 -5.53385,-2.03125 -2.03125,-2.03125 -2.03125,-5.4948 0,-3.58072 1.92708,-5.67708 1.9401,-2.10937 5.22135,-2.10937 2.94271,0 4.64844,1.90104 1.71875,1.88802 1.71875,5.14323 z m -2.39583,-0.70313 q -0.026,-1.96614 -1.10677,-3.13802 -1.06771,-1.17187 -2.83854,-1.17187 -2.00521,0 -3.21615,1.13281 -1.19792,1.13281 -1.38021,3.1901 z"
         style="font-size:26.66666794px;stroke:none;stroke-opacity:0.94117647"
         id="path1282"
         inkscape:connector-curvature="0" />
    </g>
    <g
       id="g1440">
      <path
         inkscape:connector-curvature="0"
         id="path1396"
         d="M 116.01271,58.317188 V 42.939795"
         style="fill:none;stroke:#000000;stroke-width:1;stroke-linecap:butt;stroke-linejoin:miter;stroke-miterlimit:4;stroke-dasharray:none;stroke-opacity:1" />
      <path
         inkscape:connector-curvature="0"
         id="path1398"
         d="m 113.17123,42.939795 h 5.68296"
         style="fill:none;stroke:#000000;stroke-width:1;stroke-linecap:butt;stroke-linejoin:miter;stroke-miterlimit:4;stroke-dasharray:none;stroke-opacity:1" />
      <path
         inkscape:connector-curvature="0"
         id="path1398-0"
         d="m 113.17123,58.317188 h 5.68296"
         style="fill:none;stroke:#000000;stroke-width:1;stroke-linecap:butt;stroke-linejoin:miter;stroke-miterlimit:4;stroke-dasharray:none;stroke-opacity:1" />
    </g>
    <g
       aria-label="valueLabelHeight"
       style="font-style:normal;font-weight:normal;font-size:8.46666622px;line-height:1.25;font-family:sans-serif;letter-spacing:0px;word-spacing:0px;fill:#000000;fill-opacity:1;stroke:none;stroke-width:0.26458332"
       id="text1417">
      <path
         d="m 120.62491,47.707038 h 0.80615 l 1.44694,3.886067 1.44694,-3.886067 h 0.80615 l -1.73633,4.630208 h -1.03352 z"
         style="stroke-width:0.26458332"
         id="path1512" />
      <path
         d="m 128.28542,50.00974 q -0.92191,0 -1.27744,0.210839 -0.35553,0.21084 -0.35553,0.719336 0,0.405143 0.26458,0.644922 0.26872,0.235645 0.7276,0.235645 0.63252,0 1.01286,-0.446485 0.38447,-0.450618 0.38447,-1.194759 V 50.00974 Z m 1.51722,-0.314193 v 2.641699 h -0.76068 v -0.7028 q -0.26044,0.42168 -0.64905,0.624252 -0.38861,0.198437 -0.95085,0.198437 -0.71107,0 -1.13275,-0.396875 -0.41754,-0.401009 -0.41754,-1.070735 0,-0.781348 0.5209,-1.178223 0.52503,-0.396875 1.56269,-0.396875 h 1.0666 v -0.07441 q 0,-0.525032 -0.34726,-0.810286 -0.34313,-0.289388 -0.96738,-0.289388 -0.39688,0 -0.77308,0.09508 -0.37621,0.09509 -0.72347,0.285254 v -0.702799 q 0.41754,-0.161231 0.81028,-0.239779 0.39274,-0.08268 0.76481,-0.08268 1.00459,0 1.50069,0.520898 0.49609,0.520899 0.49609,1.579232 z"
         style="stroke-width:0.26458332"
         id="path1514" />
      <path
         d="m 131.3736,45.904564 h 0.76068 v 6.432682 h -0.76068 z"
         style="stroke-width:0.26458332"
         id="path1516" />
      <path
         d="m 133.64323,50.509967 v -2.802929 h 0.76068 v 2.773991 q 0,0.657324 0.25632,0.988053 0.25631,0.326595 0.76894,0.326595 0.61598,0 0.97152,-0.392741 0.35967,-0.392741 0.35967,-1.070736 v -2.625162 h 0.76067 v 4.630208 h -0.76067 v -0.711068 q -0.27699,0.42168 -0.64493,0.628386 -0.3638,0.202571 -0.84749,0.202571 -0.79788,0 -1.21129,-0.496093 -0.41342,-0.496094 -0.41342,-1.451075 z"
         style="stroke-width:0.26458332"
         id="path1518" />
      <path
         d="m 143.05661,49.831973 v 0.37207 h -3.49746 q 0.0496,0.785482 0.47129,1.198893 0.42581,0.409277 1.18236,0.409277 0.43821,0 0.84749,-0.107487 0.41341,-0.107487 0.81856,-0.32246 v 0.719335 q -0.40928,0.173633 -0.83923,0.264584 -0.42995,0.09095 -0.8723,0.09095 -1.10794,0 -1.757,-0.644922 -0.64492,-0.644921 -0.64492,-1.744596 0,-1.136881 0.61185,-1.802474 0.61598,-0.669726 1.65778,-0.669726 0.93431,0 1.47588,0.60358 0.5457,0.599447 0.5457,1.632976 z m -0.76068,-0.223243 q -0.008,-0.624251 -0.35139,-0.996321 -0.339,-0.37207 -0.90124,-0.37207 -0.63666,0 -1.02113,0.359668 -0.38034,0.359668 -0.43821,1.012858 z"
         style="stroke-width:0.26458332"
         id="path1520" />
      <path
         d="m 144.33819,46.165013 h 0.83509 v 5.469433 h 3.0055 v 0.7028 h -3.84059 z"
         style="stroke-width:0.26458332"
         id="path1522" />
      <path
         d="m 151.12227,50.00974 q -0.92191,0 -1.27744,0.210839 -0.35554,0.21084 -0.35554,0.719336 0,0.405143 0.26459,0.644922 0.26871,0.235645 0.7276,0.235645 0.63252,0 1.01286,-0.446485 0.38447,-0.450618 0.38447,-1.194759 V 50.00974 Z m 1.51722,-0.314193 v 2.641699 h -0.76068 v -0.7028 q -0.26045,0.42168 -0.64906,0.624252 -0.3886,0.198437 -0.95084,0.198437 -0.71107,0 -1.13275,-0.396875 -0.41754,-0.401009 -0.41754,-1.070735 0,-0.781348 0.52089,-1.178223 0.52504,-0.396875 1.5627,-0.396875 h 1.0666 v -0.07441 q 0,-0.525032 -0.34726,-0.810286 -0.34314,-0.289388 -0.96739,-0.289388 -0.39687,0 -0.77308,0.09508 -0.3762,0.09509 -0.72347,0.285254 v -0.702799 q 0.41755,-0.161231 0.81029,-0.239779 0.39274,-0.08268 0.76481,-0.08268 1.00459,0 1.50068,0.520898 0.4961,0.520899 0.4961,1.579232 z"
         style="stroke-width:0.26458332"
         id="path1524" />
      <path
         d="m 157.53428,50.026276 q 0,-0.839225 -0.34727,-1.314648 -0.34313,-0.479558 -0.94671,-0.479558 -0.60358,0 -0.95084,0.479558 -0.34314,0.475423 -0.34314,1.314648 0,0.839225 0.34314,1.318782 0.34726,0.475424 0.95084,0.475424 0.60358,0 0.94671,-0.475424 0.34727,-0.479557 0.34727,-1.318782 z m -2.58796,-1.616439 q 0.23978,-0.413411 0.60358,-0.611849 0.36794,-0.202571 0.87644,-0.202571 0.84336,0 1.36839,0.669726 0.52917,0.669727 0.52917,1.761133 0,1.091406 -0.52917,1.761133 -0.52503,0.669726 -1.36839,0.669726 -0.5085,0 -0.87644,-0.198437 -0.3638,-0.202572 -0.60358,-0.615983 v 0.694531 h -0.76481 v -6.432682 h 0.76481 z"
         style="stroke-width:0.26458332"
         id="path1526" />
      <path
         d="m 163.54528,49.831973 v 0.37207 h -3.49746 q 0.0496,0.785482 0.47129,1.198893 0.42582,0.409277 1.18236,0.409277 0.43822,0 0.84749,-0.107487 0.41341,-0.107487 0.81856,-0.32246 v 0.719335 q -0.40928,0.173633 -0.83923,0.264584 -0.42995,0.09095 -0.8723,0.09095 -1.10794,0 -1.75699,-0.644922 -0.64493,-0.644921 -0.64493,-1.744596 0,-1.136881 0.61185,-1.802474 0.61599,-0.669726 1.65778,-0.669726 0.93431,0 1.47588,0.60358 0.5457,0.599447 0.5457,1.632976 z m -0.76067,-0.223243 q -0.008,-0.624251 -0.3514,-0.996321 -0.339,-0.37207 -0.90124,-0.37207 -0.63665,0 -1.02113,0.359668 -0.38033,0.359668 -0.43821,1.012858 z"
         style="stroke-width:0.26458332"
         id="path1528" />
      <path
         d="m 164.79378,45.904564 h 0.76068 v 6.432682 h -0.76068 z"
         style="stroke-width:0.26458332"
         id="path1530" />
      <path
         d="m 167.17504,46.165013 h 0.83509 v 2.530078 h 3.03444 v -2.530078 h 0.83509 v 6.172233 h -0.83509 v -2.939355 h -3.03444 v 2.939355 h -0.83509 z"
         style="stroke-width:0.26458332"
         id="path1532" />
      <path
         d="m 177.46898,49.831973 v 0.37207 h -3.49746 q 0.0496,0.785482 0.47129,1.198893 0.42581,0.409277 1.18235,0.409277 0.43822,0 0.8475,-0.107487 0.41341,-0.107487 0.81855,-0.32246 v 0.719335 q -0.40928,0.173633 -0.83922,0.264584 -0.42995,0.09095 -0.8723,0.09095 -1.10794,0 -1.757,-0.644922 -0.64492,-0.644921 -0.64492,-1.744596 0,-1.136881 0.61185,-1.802474 0.61598,-0.669726 1.65778,-0.669726 0.93431,0 1.47588,0.60358 0.5457,0.599447 0.5457,1.632976 z M 176.7083,49.60873 q -0.008,-0.624251 -0.3514,-0.996321 -0.339,-0.37207 -0.90123,-0.37207 -0.63666,0 -1.02113,0.359668 -0.38034,0.359668 -0.43822,1.012858 z"
         style="stroke-width:0.26458332"
         id="path1534" />
      <path
         d="m 178.71748,47.707038 h 0.76068 v 4.630208 h -0.76068 z m 0,-1.802474 h 0.76068 v 0.963249 h -0.76068 z"
         style="stroke-width:0.26458332"
         id="path1536" />
      <path
         d="m 184.1125,49.968398 q 0,-0.826822 -0.34313,-1.281575 -0.339,-0.454753 -0.95498,-0.454753 -0.61185,0 -0.95498,0.454753 -0.339,0.454753 -0.339,1.281575 0,0.822689 0.339,1.277442 0.34313,0.454752 0.95498,0.454752 0.61598,0 0.95498,-0.454752 0.34313,-0.454753 0.34313,-1.277442 z m 0.76068,1.794206 q 0,1.182357 -0.52503,1.756999 -0.52504,0.578776 -1.60817,0.578776 -0.40101,0 -0.75655,-0.06201 -0.35553,-0.05788 -0.69039,-0.181901 v -0.740007 q 0.33486,0.181901 0.66146,0.268718 0.32659,0.08682 0.66559,0.08682 0.74827,0 1.12034,-0.392741 0.37207,-0.388606 0.37207,-1.178222 v -0.376205 q -0.23564,0.409278 -0.60358,0.611849 -0.36793,0.202572 -0.88056,0.202572 -0.85163,0 -1.37253,-0.649056 -0.5209,-0.649056 -0.5209,-1.719792 0,-1.074869 0.5209,-1.723925 0.5209,-0.649056 1.37253,-0.649056 0.51263,0 0.88056,0.202571 0.36794,0.202572 0.60358,0.611849 v -0.702799 h 0.76068 z"
         style="stroke-width:0.26458332"
         id="path1538" />
      <path
         d="m 190.28886,49.542585 v 2.794661 h -0.76067 v -2.769857 q 0,-0.657324 -0.25632,-0.983919 -0.25631,-0.326595 -0.76894,-0.326595 -0.61599,0 -0.97152,0.392741 -0.35553,0.392741 -0.35553,1.070736 v 2.616894 h -0.76481 v -6.432682 h 0.76481 v 2.52181 q 0.27285,-0.417546 0.64078,-0.624252 0.37207,-0.206705 0.85577,-0.206705 0.79788,0 1.20716,0.496093 0.40927,0.49196 0.40927,1.451075 z"
         style="stroke-width:0.26458332"
         id="path1540" />
      <path
         d="m 192.56676,46.392389 v 1.314649 h 1.56683 v 0.591178 h -1.56683 v 2.513542 q 0,0.566373 0.15297,0.727604 0.15709,0.16123 0.63252,0.16123 h 0.78134 v 0.636654 h -0.78134 q -0.88057,0 -1.21543,-0.326595 -0.33487,-0.330729 -0.33487,-1.198893 v -2.513542 h -0.5581 v -0.591178 h 0.5581 v -1.314649 z"
         style="stroke-width:0.26458332"
         id="path1542" />
    </g>
    <g
       aria-label="nameLabelHeight"
       style="font-style:normal;font-weight:normal;font-size:8.46666622px;line-height:1.25;font-family:sans-serif;letter-spacing:0px;word-spacing:0px;fill:#000000;fill-opacity:1;stroke:none;stroke-width:0.26458332"
       id="text1417-5">
      <path
         d="m 125.12077,177.29086 v 2.79467 h -0.76068 v -2.76986 q 0,-0.65733 -0.25632,-0.98392 -0.25631,-0.3266 -0.76894,-0.3266 -0.61598,0 -0.97152,0.39275 -0.35553,0.39274 -0.35553,1.07073 v 2.6169 h -0.76481 v -4.63021 h 0.76481 v 0.71933 q 0.27285,-0.41754 0.64079,-0.62425 0.37207,-0.2067 0.85576,-0.2067 0.79788,0 1.20716,0.49609 0.40928,0.49196 0.40928,1.45107 z"
         style="stroke-width:0.26458332"
         id="path1545" />
      <path
         d="m 128.75052,177.75802 q -0.92191,0 -1.27744,0.21084 -0.35554,0.21084 -0.35554,0.71933 0,0.40515 0.26459,0.64493 0.26871,0.23564 0.7276,0.23564 0.63252,0 1.01286,-0.44648 0.38447,-0.45062 0.38447,-1.19476 v -0.1695 z m 1.51722,-0.31419 v 2.6417 h -0.76068 v -0.7028 q -0.26045,0.42168 -0.64905,0.62425 -0.38861,0.19843 -0.95085,0.19843 -0.71107,0 -1.13275,-0.39687 -0.41754,-0.40101 -0.41754,-1.07074 0,-0.78134 0.5209,-1.17822 0.52503,-0.39687 1.56269,-0.39687 h 1.0666 v -0.0744 q 0,-0.52503 -0.34726,-0.81028 -0.34314,-0.28939 -0.96739,-0.28939 -0.39687,0 -0.77308,0.0951 -0.3762,0.0951 -0.72347,0.28526 v -0.7028 q 0.41755,-0.16123 0.81029,-0.23978 0.39274,-0.0827 0.76481,-0.0827 1.00459,0 1.50069,0.52089 0.49609,0.5209 0.49609,1.57924 z"
         style="stroke-width:0.26458332"
         id="path1547" />
      <path
         d="m 135.44365,176.34415 q 0.28525,-0.51263 0.68213,-0.75654 0.39687,-0.24391 0.93431,-0.24391 0.72347,0 1.11621,0.50849 0.39274,0.50436 0.39274,1.43867 v 2.79467 h -0.76481 v -2.76986 q 0,-0.66559 -0.23565,-0.98805 -0.23564,-0.32247 -0.71933,-0.32247 -0.59118,0 -0.93431,0.39275 -0.34313,0.39274 -0.34313,1.07073 v 2.6169 H 134.807 v -2.76986 q 0,-0.66973 -0.23565,-0.98805 -0.23564,-0.32247 -0.7276,-0.32247 -0.58291,0 -0.92604,0.39688 -0.34314,0.39274 -0.34314,1.0666 v 2.6169 h -0.76481 v -4.63021 h 0.76481 v 0.71933 q 0.26045,-0.42581 0.62426,-0.62838 0.3638,-0.20257 0.86403,-0.20257 0.50436,0 0.85576,0.25631 0.35553,0.25632 0.52503,0.74414 z"
         style="stroke-width:0.26458332"
         id="path1549" />
      <path
         d="m 144.05088,177.58025 v 0.37207 h -3.49746 q 0.0496,0.78548 0.47128,1.1989 0.42582,0.40927 1.18236,0.40927 0.43822,0 0.8475,-0.10748 0.41341,-0.10749 0.81855,-0.32246 v 0.71933 q -0.40928,0.17363 -0.83923,0.26458 -0.42994,0.0909 -0.87229,0.0909 -1.10795,0 -1.757,-0.64492 -0.64492,-0.64492 -0.64492,-1.74459 0,-1.13688 0.61184,-1.80248 0.61599,-0.66972 1.65778,-0.66972 0.93431,0 1.47588,0.60358 0.54571,0.59944 0.54571,1.63297 z m -0.76068,-0.22324 q -0.008,-0.62425 -0.3514,-0.99632 -0.339,-0.37207 -0.90124,-0.37207 -0.63665,0 -1.02112,0.35967 -0.38034,0.35966 -0.43822,1.01285 z"
         style="stroke-width:0.26458332"
         id="path1551" />
      <path
         d="m 145.33245,173.91329 h 0.83509 v 5.46944 h 3.0055 v 0.7028 h -3.84059 z"
         style="stroke-width:0.26458332"
         id="path1553" />
      <path
         d="m 152.11653,177.75802 q -0.92191,0 -1.27744,0.21084 -0.35553,0.21084 -0.35553,0.71933 0,0.40515 0.26458,0.64493 0.26872,0.23564 0.7276,0.23564 0.63252,0 1.01286,-0.44648 0.38448,-0.45062 0.38448,-1.19476 v -0.1695 z m 1.51722,-0.31419 v 2.6417 h -0.76067 v -0.7028 q -0.26045,0.42168 -0.64906,0.62425 -0.38861,0.19843 -0.95085,0.19843 -0.71106,0 -1.13274,-0.39687 -0.41755,-0.40101 -0.41755,-1.07074 0,-0.78134 0.5209,-1.17822 0.52503,-0.39687 1.56269,-0.39687 h 1.06661 v -0.0744 q 0,-0.52503 -0.34727,-0.81028 -0.34313,-0.28939 -0.96738,-0.28939 -0.39688,0 -0.77308,0.0951 -0.37621,0.0951 -0.72347,0.28526 v -0.7028 q 0.41754,-0.16123 0.81028,-0.23978 0.39274,-0.0827 0.76482,-0.0827 1.00458,0 1.50068,0.52089 0.49609,0.5209 0.49609,1.57924 z"
         style="stroke-width:0.26458332"
         id="path1555" />
      <path
         d="m 158.52854,177.77456 q 0,-0.83923 -0.34726,-1.31465 -0.34314,-0.47956 -0.94672,-0.47956 -0.60358,0 -0.95084,0.47956 -0.34313,0.47542 -0.34313,1.31465 0,0.83922 0.34313,1.31878 0.34726,0.47542 0.95084,0.47542 0.60358,0 0.94672,-0.47542 0.34726,-0.47956 0.34726,-1.31878 z m -2.58795,-1.61644 q 0.23977,-0.41341 0.60358,-0.61185 0.36793,-0.20257 0.87643,-0.20257 0.84336,0 1.36839,0.66972 0.52917,0.66973 0.52917,1.76114 0,1.0914 -0.52917,1.76113 -0.52503,0.66972 -1.36839,0.66972 -0.5085,0 -0.87643,-0.19843 -0.36381,-0.20257 -0.60358,-0.61599 v 0.69454 h -0.76481 v -6.43269 h 0.76481 z"
         style="stroke-width:0.26458332"
         id="path1557" />
      <path
         d="m 164.53955,177.58025 v 0.37207 h -3.49746 q 0.0496,0.78548 0.47129,1.1989 0.42581,0.40927 1.18235,0.40927 0.43822,0 0.8475,-0.10748 0.41341,-0.10749 0.81855,-0.32246 v 0.71933 q -0.40928,0.17363 -0.83923,0.26458 -0.42994,0.0909 -0.87229,0.0909 -1.10795,0 -1.757,-0.64492 -0.64492,-0.64492 -0.64492,-1.74459 0,-1.13688 0.61185,-1.80248 0.61598,-0.66972 1.65778,-0.66972 0.9343,0 1.47587,0.60358 0.54571,0.59944 0.54571,1.63297 z m -0.76068,-0.22324 q -0.008,-0.62425 -0.3514,-0.99632 -0.339,-0.37207 -0.90124,-0.37207 -0.63665,0 -1.02112,0.35967 -0.38034,0.35966 -0.43822,1.01285 z"
         style="stroke-width:0.26458332"
         id="path1559" />
      <path
         d="m 165.78805,173.65284 h 0.76068 v 6.43269 h -0.76068 z"
         style="stroke-width:0.26458332"
         id="path1561" />
      <path
         d="m 168.1693,173.91329 h 0.83509 v 2.53008 h 3.03444 v -2.53008 h 0.83509 v 6.17224 h -0.83509 v -2.93936 h -3.03444 v 2.93936 h -0.83509 z"
         style="stroke-width:0.26458332"
         id="path1563" />
      <path
         d="m 178.46324,177.58025 v 0.37207 h -3.49746 q 0.0496,0.78548 0.47129,1.1989 0.42581,0.40927 1.18236,0.40927 0.43821,0 0.84749,-0.10748 0.41341,-0.10749 0.81855,-0.32246 v 0.71933 q -0.40927,0.17363 -0.83922,0.26458 -0.42995,0.0909 -0.8723,0.0909 -1.10794,0 -1.757,-0.64492 -0.64492,-0.64492 -0.64492,-1.74459 0,-1.13688 0.61185,-1.80248 0.61598,-0.66972 1.65778,-0.66972 0.93431,0 1.47588,0.60358 0.5457,0.59944 0.5457,1.63297 z m -0.76068,-0.22324 q -0.008,-0.62425 -0.3514,-0.99632 -0.33899,-0.37207 -0.90123,-0.37207 -0.63666,0 -1.02113,0.35967 -0.38034,0.35966 -0.43821,1.01285 z"
         style="stroke-width:0.26458332"
         id="path1565" />
      <path
         d="m 179.71174,175.45532 h 0.76068 v 4.63021 h -0.76068 z m 0,-1.80248 h 0.76068 v 0.96325 h -0.76068 z"
         style="stroke-width:0.26458332"
         id="path1567" />
      <path
         d="m 185.10677,177.71668 q 0,-0.82682 -0.34314,-1.28158 -0.33899,-0.45475 -0.95498,-0.45475 -0.61185,0 -0.95498,0.45475 -0.33899,0.45476 -0.33899,1.28158 0,0.82269 0.33899,1.27744 0.34313,0.45475 0.95498,0.45475 0.61599,0 0.95498,-0.45475 0.34314,-0.45475 0.34314,-1.27744 z m 0.76067,1.7942 q 0,1.18236 -0.52503,1.757 -0.52503,0.57878 -1.60817,0.57878 -0.40101,0 -0.75654,-0.062 -0.35554,-0.0579 -0.6904,-0.1819 v -0.74001 q 0.33486,0.1819 0.66146,0.26872 0.32659,0.0868 0.66559,0.0868 0.74827,0 1.12035,-0.39274 0.37207,-0.3886 0.37207,-1.17822 v -0.37621 q -0.23565,0.40928 -0.60359,0.61185 -0.36793,0.20258 -0.88056,0.20258 -0.85163,0 -1.37253,-0.64906 -0.5209,-0.64906 -0.5209,-1.71979 0,-1.07487 0.5209,-1.72393 0.5209,-0.64905 1.37253,-0.64905 0.51263,0 0.88056,0.20257 0.36794,0.20257 0.60359,0.61185 v -0.7028 h 0.76067 z"
         style="stroke-width:0.26458332"
         id="path1569" />
      <path
         d="m 191.28314,177.29086 v 2.79467 h -0.76068 v -2.76986 q 0,-0.65733 -0.25632,-0.98392 -0.25631,-0.3266 -0.76894,-0.3266 -0.61599,0 -0.97152,0.39275 -0.35553,0.39274 -0.35553,1.07073 v 2.6169 h -0.76481 v -6.43269 h 0.76481 v 2.52181 q 0.27285,-0.41754 0.64078,-0.62425 0.37208,-0.2067 0.85577,-0.2067 0.79788,0 1.20716,0.49609 0.40928,0.49196 0.40928,1.45107 z"
         style="stroke-width:0.26458332"
         id="path1571" />
      <path
         d="m 193.56103,174.14067 v 1.31465 h 1.56683 v 0.59118 h -1.56683 v 2.51354 q 0,0.56637 0.15296,0.7276 0.1571,0.16123 0.63252,0.16123 h 0.78135 v 0.63666 h -0.78135 q -0.88057,0 -1.21543,-0.3266 -0.33486,-0.33073 -0.33486,-1.19889 v -2.51354 h -0.55811 v -0.59118 h 0.55811 v -1.31465 z"
         style="stroke-width:0.26458332"
         id="path1573" />
    </g>
    <path
       style="fill:none;stroke:#000000;stroke-width:1;stroke-linecap:butt;stroke-linejoin:miter;stroke-miterlimit:4;stroke-dasharray:none;stroke-opacity:1"
       d="m 113.11777,167.36314 h 5.68296"
       id="path1398-3"
       inkscape:connector-curvature="0" />
    <path
       style="fill:none;stroke:#000000;stroke-width:1;stroke-linecap:butt;stroke-linejoin:miter;stroke-miterlimit:4;stroke-dasharray:none;stroke-opacity:1"
       d="m 113.17123,187.53933 h 5.68296"
       id="path1398-0-7"
       inkscape:connector-curvature="0" />
    <g
       transform="translate(7.25612,104.54803)"
       id="g1440-2-9" />
    <path
       style="fill:none;stroke:#000000;stroke-width:1;stroke-linecap:butt;stroke-linejoin:miter;stroke-miterlimit:4;stroke-dasharray:none;stroke-opacity:1"
       d="M 116.01271,58.317188 V 187.53933"
       id="path1490"
       inkscape:connector-curvature="0"
       sodipodi:nodetypes="cc" />
    <g
       aria-label="barHeight"
       style="font-style:normal;font-weight:normal;font-size:8.46666622px;line-height:1.25;font-family:sans-serif;letter-spacing:0px;word-spacing:0px;fill:#000000;fill-opacity:1;stroke:none;stroke-width:0.26458332"
       id="text1417-5-9">
      <path
         d="m 127.08239,117.39995 q 0,-0.83922 -0.34727,-1.31465 -0.34313,-0.47955 -0.94671,-0.47955 -0.60358,0 -0.95084,0.47955 -0.34314,0.47543 -0.34314,1.31465 0,0.83923 0.34314,1.31878 0.34726,0.47543 0.95084,0.47543 0.60358,0 0.94671,-0.47543 0.34727,-0.47955 0.34727,-1.31878 z m -2.58796,-1.61644 q 0.23978,-0.41341 0.60359,-0.61185 0.36793,-0.20257 0.87643,-0.20257 0.84336,0 1.36839,0.66973 0.52917,0.66973 0.52917,1.76113 0,1.09141 -0.52917,1.76114 -0.52503,0.66972 -1.36839,0.66972 -0.5085,0 -0.87643,-0.19844 -0.36381,-0.20257 -0.60359,-0.61598 v 0.69453 h -0.76481 v -6.43268 h 0.76481 z"
         style="stroke-width:0.26458332"
         id="path1576" />
      <path
         d="m 131.23718,117.38342 q -0.92191,0 -1.27745,0.21084 -0.35553,0.21084 -0.35553,0.71933 0,0.40514 0.26458,0.64492 0.26872,0.23565 0.72761,0.23565 0.63252,0 1.01286,-0.44649 0.38447,-0.45061 0.38447,-1.19476 v -0.16949 z m 1.51721,-0.3142 v 2.6417 h -0.76067 v -0.7028 q -0.26045,0.42168 -0.64906,0.62425 -0.3886,0.19844 -0.95084,0.19844 -0.71107,0 -1.13275,-0.39687 -0.41755,-0.40101 -0.41755,-1.07074 0,-0.78135 0.5209,-1.17822 0.52503,-0.39688 1.5627,-0.39688 h 1.0666 v -0.0744 q 0,-0.52503 -0.34727,-0.81029 -0.34313,-0.28939 -0.96738,-0.28939 -0.39688,0 -0.77308,0.0951 -0.3762,0.0951 -0.72347,0.28525 v -0.7028 q 0.41755,-0.16123 0.81029,-0.23977 0.39274,-0.0827 0.76481,-0.0827 1.00459,0 1.50068,0.5209 0.49609,0.5209 0.49609,1.57923 z"
         style="stroke-width:0.26458332"
         id="path1578" />
      <path
         d="m 137.0084,115.79178 q -0.12816,-0.0744 -0.28112,-0.10749 -0.14883,-0.0372 -0.33073,-0.0372 -0.64492,0 -0.99219,0.42168 -0.34313,0.41754 -0.34313,1.20302 v 2.43913 h -0.76481 v -4.63021 h 0.76481 v 0.71934 q 0.23978,-0.42168 0.62425,-0.62425 0.38447,-0.20671 0.93431,-0.20671 0.0786,0 0.17363,0.0124 0.0951,0.008 0.21084,0.0289 z"
         style="stroke-width:0.26458332"
         id="path1580" />
      <path
         d="m 137.84762,113.53869 h 0.83509 v 2.53008 h 3.03444 v -2.53008 h 0.8351 v 6.17223 h -0.8351 v -2.93935 h -3.03444 v 2.93935 h -0.83509 z"
         style="stroke-width:0.26458332"
         id="path1582" />
      <path
         d="m 148.14157,117.20565 v 0.37207 h -3.49746 q 0.0496,0.78548 0.47129,1.19889 0.42581,0.40928 1.18235,0.40928 0.43822,0 0.8475,-0.10749 0.41341,-0.10748 0.81855,-0.32246 v 0.71934 q -0.40928,0.17363 -0.83922,0.26458 -0.42995,0.091 -0.8723,0.091 -1.10794,0 -1.757,-0.64492 -0.64492,-0.64492 -0.64492,-1.7446 0,-1.13688 0.61185,-1.80247 0.61598,-0.66973 1.65778,-0.66973 0.93431,0 1.47588,0.60358 0.5457,0.59945 0.5457,1.63298 z m -0.76068,-0.22324 q -0.008,-0.62425 -0.3514,-0.99632 -0.339,-0.37208 -0.90123,-0.37208 -0.63666,0 -1.02113,0.35967 -0.38034,0.35967 -0.43822,1.01286 z"
         style="stroke-width:0.26458332"
         id="path1584" />
      <path
         d="m 149.39007,115.08071 h 0.76068 v 4.63021 h -0.76068 z m 0,-1.80247 h 0.76068 v 0.96325 h -0.76068 z"
         style="stroke-width:0.26458332"
         id="path1586" />
      <path
         d="m 154.78509,117.34207 q 0,-0.82682 -0.34313,-1.28157 -0.339,-0.45475 -0.95498,-0.45475 -0.61185,0 -0.95498,0.45475 -0.339,0.45475 -0.339,1.28157 0,0.82269 0.339,1.27745 0.34313,0.45475 0.95498,0.45475 0.61598,0 0.95498,-0.45475 0.34313,-0.45476 0.34313,-1.27745 z m 0.76068,1.79421 q 0,1.18236 -0.52503,1.757 -0.52504,0.57877 -1.60817,0.57877 -0.40101,0 -0.75655,-0.062 -0.35553,-0.0579 -0.69039,-0.1819 v -0.74 q 0.33486,0.1819 0.66145,0.26871 0.3266,0.0868 0.6656,0.0868 0.74827,0 1.12034,-0.39274 0.37207,-0.38861 0.37207,-1.17822 v -0.37621 q -0.23564,0.40928 -0.60358,0.61185 -0.36794,0.20257 -0.88057,0.20257 -0.85162,0 -1.37252,-0.64905 -0.5209,-0.64906 -0.5209,-1.7198 0,-1.07487 0.5209,-1.72392 0.5209,-0.64906 1.37252,-0.64906 0.51263,0 0.88057,0.20257 0.36794,0.20258 0.60358,0.61185 v -0.7028 h 0.76068 z"
         style="stroke-width:0.26458332"
         id="path1588" />
      <path
         d="m 160.96146,116.91626 v 2.79466 h -0.76068 v -2.76985 q 0,-0.65733 -0.25632,-0.98392 -0.25631,-0.3266 -0.76894,-0.3266 -0.61598,0 -0.97152,0.39274 -0.35553,0.39274 -0.35553,1.07074 v 2.61689 h -0.76481 v -6.43268 h 0.76481 v 2.52181 q 0.27285,-0.41755 0.64079,-0.62425 0.37207,-0.20671 0.85576,-0.20671 0.79788,0 1.20716,0.4961 0.40928,0.49196 0.40928,1.45107 z"
         style="stroke-width:0.26458332"
         id="path1590" />
      <path
         d="m 163.23935,113.76607 v 1.31464 h 1.56683 v 0.59118 h -1.56683 v 2.51354 q 0,0.56638 0.15297,0.72761 0.15709,0.16123 0.63251,0.16123 h 0.78135 v 0.63665 h -0.78135 q -0.88056,0 -1.21542,-0.32659 -0.33487,-0.33073 -0.33487,-1.1989 v -2.51354 h -0.5581 v -0.59118 h 0.5581 v -1.31464 z"
         style="stroke-width:0.26458332"
         id="path1592" />
    </g>
  </g>
</svg>
