<?xml version="1.0" encoding="UTF-8" standalone="no"?>
<svg
   xmlns:dc="http://purl.org/dc/elements/1.1/"
   xmlns:cc="http://creativecommons.org/ns#"
   xmlns:rdf="http://www.w3.org/1999/02/22-rdf-syntax-ns#"
   xmlns:svg="http://www.w3.org/2000/svg"
   xmlns="http://www.w3.org/2000/svg"
   id="svg8"
   version="1.1"
   viewBox="0 0 178.09074 209.88214"
   height="209.88214mm"
   width="178.09074mm">
  <defs
     id="defs2" />
  <metadata
     id="metadata5">
    <rdf:RDF>
      <cc:Work
         rdf:about="">
        <dc:format>image/svg+xml</dc:format>
        <dc:type
           rdf:resource="http://purl.org/dc/dcmitype/StillImage" />
        <dc:title></dc:title>
      </cc:Work>
    </rdf:RDF>
  </metadata>
  <g
     transform="translate(-16.391474,-4.6446973)"
     id="layer1">
    <path
       id="rect815"
       d="M 46.398888,64.742783 H 63.504135 V 173.78874 H 46.398888 Z"
       style="fill:#2a7fff;fill-opacity:0.94117647;stroke:none;stroke-width:1;stroke-miterlimit:4;stroke-dasharray:none;stroke-dashoffset:0;stroke-opacity:0.94117647" />
    <path
       id="rect815-7"
       d="m 71.441635,102.69506 h 17.105248 v 71.09368 H 71.441635 Z"
       style="fill:#2a7fff;fill-opacity:0.94117647;stroke:none;stroke-width:1;stroke-miterlimit:4;stroke-dasharray:none;stroke-dashoffset:0;stroke-opacity:0.94117647" />
    <path
       id="rect815-7-9"
       d="m 96.48439,134.76741 h 17.10525 v 39.02134 H 96.48439 Z"
       style="fill:#2a7fff;fill-opacity:0.94117647;stroke:none;stroke-width:1;stroke-miterlimit:4;stroke-dasharray:none;stroke-dashoffset:0;stroke-opacity:0.94117647" />
    <path
       id="rect815-7-9-3"
       d="m 121.52714,67.415482 h 17.10525 V 173.78874 h -17.10525 z"
       style="fill:#2a7fff;fill-opacity:0.94117647;stroke:none;stroke-width:1;stroke-miterlimit:4;stroke-dasharray:none;stroke-dashoffset:0;stroke-opacity:0.94117647" />
    <path
       id="rect815-7-9-3-8"
       d="m 146.56989,89.331581 h 17.10524 v 84.457159 h -17.10524 z"
       style="fill:#2a7fff;fill-opacity:0.94117647;stroke:none;stroke-width:1;stroke-miterlimit:4;stroke-dasharray:none;stroke-dashoffset:0;stroke-opacity:0.94117647" />
    <g
       id="flowRoot883"
       style="font-style:normal;font-weight:normal;font-size:16px;line-height:1.25;font-family:sans-serif;letter-spacing:0px;word-spacing:0px;fill:#000000;fill-opacity:1;stroke:none"
       transform="matrix(0.26458333,0,0,0.26458333,-1.5883623,-11.759859)"
       aria-label="Name
">
      <path
         id="path1265"
         style="font-size:26.66666794px"
         d="m 176.36328,728.67318 h 3.54167 l 8.61979,16.26302 v -16.26302 h 2.55208 v 19.4401 h -3.54166 l -8.6198,-16.26302 v 16.26302 h -2.55208 z" />
      <path
         id="path1267"
         style="font-size:26.66666794px"
         d="m 202.83464,740.78255 q -2.90365,0 -4.02344,0.66407 -1.11979,0.66406 -1.11979,2.26562 0,1.27604 0.83333,2.03125 0.84636,0.74219 2.29167,0.74219 1.99219,0 3.1901,-1.40625 1.21094,-1.41927 1.21094,-3.76302 v -0.53386 z m 4.77864,-0.98958 v 8.32031 h -2.39583 v -2.21354 q -0.82031,1.32813 -2.04427,1.96615 -1.22396,0.625 -2.99479,0.625 -2.23959,0 -3.56771,-1.25 -1.31511,-1.26302 -1.31511,-3.3724 0,-2.46094 1.64063,-3.71094 1.65365,-1.25 4.92187,-1.25 h 3.35938 v -0.23437 q 0,-1.65365 -1.09375,-2.55209 -1.08073,-0.91145 -3.04688,-0.91145 -1.25,0 -2.43489,0.29948 -1.1849,0.29947 -2.27865,0.89843 v -2.21354 q 1.31511,-0.50781 2.55209,-0.75521 1.23698,-0.26041 2.40885,-0.26041 3.16406,0 4.72656,1.64062 1.5625,1.64063 1.5625,4.97396 z" />
      <path
         id="path1269"
         style="font-size:26.66666794px"
         d="m 223.91537,736.32943 q 0.89844,-1.61459 2.14844,-2.38281 1.25,-0.76823 2.9427,-0.76823 2.27865,0 3.51563,1.60156 1.23698,1.58854 1.23698,4.53125 v 8.80208 h -2.40886 v -8.72396 q 0,-2.09635 -0.74218,-3.11198 -0.74219,-1.01562 -2.26563,-1.01562 -1.86198,0 -2.94271,1.23698 -1.08073,1.23698 -1.08073,3.37239 v 8.24219 h -2.40885 v -8.72396 q 0,-2.10937 -0.74219,-3.11198 -0.74219,-1.01562 -2.29166,-1.01562 -1.83594,0 -2.91667,1.25 -1.08073,1.23698 -1.08073,3.35937 v 8.24219 h -2.40886 v -14.58333 h 2.40886 v 2.26562 q 0.82031,-1.34114 1.96614,-1.97916 1.14584,-0.63802 2.72136,-0.63802 1.58854,0 2.69531,0.80729 1.11979,0.80729 1.65365,2.34375 z" />
      <path
         id="path1271"
         style="font-size:26.66666794px"
         d="m 251.02475,740.22266 v 1.17187 h -11.01563 q 0.15625,2.47396 1.48437,3.77604 1.34115,1.28907 3.72396,1.28907 1.38021,0 2.66927,-0.33855 1.30209,-0.33854 2.57813,-1.01562 v 2.26562 q -1.28906,0.54688 -2.64323,0.83334 -1.35417,0.28646 -2.7474,0.28646 -3.48958,0 -5.53385,-2.03125 -2.03125,-2.03125 -2.03125,-5.4948 0,-3.58072 1.92708,-5.67708 1.94011,-2.10937 5.22136,-2.10937 2.94271,0 4.64844,1.90104 1.71875,1.88802 1.71875,5.14323 z m -2.39584,-0.70313 q -0.026,-1.96614 -1.10677,-3.13802 -1.06771,-1.17187 -2.83854,-1.17187 -2.00521,0 -3.21615,1.13281 -1.19791,1.13281 -1.38021,3.1901 z" />
    </g>
    <g
       id="flowRoot883-0"
       style="font-style:normal;font-weight:normal;font-size:16px;line-height:1.25;font-family:sans-serif;letter-spacing:0px;word-spacing:0px;fill:#000000;fill-opacity:1;stroke:none"
       transform="matrix(0.26458333,0,0,0.26458333,-0.54622039,-138.42453)"
       aria-label="Value
">
      <path
         id="path1274"
         style="font-size:26.66666794px"
         d="m 181.3763,748.11328 -7.42187,-19.4401 h 2.74739 l 6.15886,16.36719 6.17187,-16.36719 h 2.73438 l -7.40886,19.4401 z" />
      <path
         id="path1276"
         style="font-size:26.66666794px"
         d="m 199.03255,740.78255 q -2.90364,0 -4.02343,0.66407 -1.1198,0.66406 -1.1198,2.26562 0,1.27604 0.83334,2.03125 0.84635,0.74219 2.29166,0.74219 1.99219,0 3.19011,-1.40625 1.21094,-1.41927 1.21094,-3.76302 v -0.53386 z m 4.77865,-0.98958 v 8.32031 h -2.39583 v -2.21354 q -0.82032,1.32813 -2.04428,1.96615 -1.22395,0.625 -2.99479,0.625 -2.23958,0 -3.56771,-1.25 -1.3151,-1.26302 -1.3151,-3.3724 0,-2.46094 1.64063,-3.71094 1.65364,-1.25 4.92187,-1.25 h 3.35938 v -0.23437 q 0,-1.65365 -1.09375,-2.55209 -1.08073,-0.91145 -3.04688,-0.91145 -1.25,0 -2.4349,0.29948 -1.18489,0.29947 -2.27864,0.89843 v -2.21354 q 1.3151,-0.50781 2.55208,-0.75521 1.23698,-0.26041 2.40886,-0.26041 3.16406,0 4.72656,1.64062 1.5625,1.64063 1.5625,4.97396 z" />
      <path
         id="path1278"
         style="font-size:26.66666794px"
         d="m 208.75911,727.85286 h 2.39584 v 20.26042 h -2.39584 z" />
      <path
         id="path1280"
         style="font-size:26.66666794px"
         d="m 215.90755,742.35807 v -8.82812 h 2.39584 v 8.73698 q 0,2.07031 0.80729,3.11198 0.80729,1.02864 2.42188,1.02864 1.9401,0 3.05989,-1.23698 1.13281,-1.23698 1.13281,-3.37239 v -8.26823 h 2.39584 v 14.58333 h -2.39584 v -2.23958 q -0.87239,1.32812 -2.03125,1.97917 -1.14583,0.63802 -2.66927,0.63802 -2.51302,0 -3.8151,-1.5625 -1.30209,-1.5625 -1.30209,-4.57032 z" />
      <path
         id="path1282"
         style="font-size:26.66666794px"
         d="m 245.55599,740.22266 v 1.17187 h -11.01562 q 0.15625,2.47396 1.48437,3.77604 1.34115,1.28907 3.72396,1.28907 1.38021,0 2.66927,-0.33855 1.30208,-0.33854 2.57813,-1.01562 v 2.26562 q -1.28907,0.54688 -2.64323,0.83334 -1.35417,0.28646 -2.7474,0.28646 -3.48958,0 -5.53385,-2.03125 -2.03125,-2.03125 -2.03125,-5.4948 0,-3.58072 1.92708,-5.67708 1.9401,-2.10937 5.22135,-2.10937 2.94271,0 4.64844,1.90104 1.71875,1.88802 1.71875,5.14323 z m -2.39583,-0.70313 q -0.026,-1.96614 -1.10677,-3.13802 -1.06771,-1.17187 -2.83854,-1.17187 -2.00521,0 -3.21615,1.13281 -1.19792,1.13281 -1.38021,3.1901 z" />
    </g>
    <path
       id="rect948"
       d="M 40.090431,46.835724 H 70.559156 V 193.29942 H 40.090431 Z"
       style="opacity:0.98000004;fill:none;fill-opacity:0.94117647;stroke:#000000;stroke-width:1;stroke-miterlimit:4;stroke-dasharray:1, 1;stroke-dashoffset:0;stroke-opacity:0.94117647" />
    <path
       id="rect948-9"
       d="M 26.891474,29.970873 H 183.98222 V 204.02684 H 26.891474 Z"
       style="opacity:0.98000004;fill:none;fill-opacity:0.94117647;stroke:#000000;stroke-width:1;stroke-miterlimit:4;stroke-dasharray:none;stroke-dashoffset:0;stroke-opacity:0.94117647" />
    <g
       id="flowRoot1185"
       style="font-style:normal;font-weight:normal;font-size:16px;line-height:1.25;font-family:sans-serif;letter-spacing:0px;word-spacing:0px;fill:#000000;fill-opacity:1;stroke:none"
       transform="matrix(0.26458333,0,0,0.26458333,3.0238095,1.5119048)"
       aria-label="Horizontal">
      <path
         id="path1287"
         style="font-size:32px"
         d="m 491.71289,134.64648 h 3.15625 v 9.5625 h 11.46875 v -9.5625 h 3.15625 v 23.32813 h -3.15625 v -11.10938 h -11.46875 v 11.10938 h -3.15625 z" />
      <path
         id="path1289"
         style="font-size:32px"
         d="m 522.43164,142.49023 q -2.3125,0 -3.65625,1.8125 -1.34375,1.79688 -1.34375,4.9375 0,3.14063 1.32813,4.95313 1.34375,1.79687 3.67187,1.79687 2.29688,0 3.64063,-1.8125 1.34375,-1.8125 1.34375,-4.9375 0,-3.10937 -1.34375,-4.92187 -1.34375,-1.82813 -3.64063,-1.82813 z m 0,-2.4375 q 3.75,0 5.89063,2.4375 2.14062,2.4375 2.14062,6.75 0,4.29688 -2.14062,6.75 -2.14063,2.4375 -5.89063,2.4375 -3.76562,0 -5.90625,-2.4375 -2.125,-2.45312 -2.125,-6.75 0,-4.3125 2.125,-6.75 2.14063,-2.4375 5.90625,-2.4375 z" />
      <path
         id="path1291"
         style="font-size:32px"
         d="m 545.35352,143.16211 q -0.48438,-0.28125 -1.0625,-0.40625 -0.5625,-0.14063 -1.25,-0.14063 -2.4375,0 -3.75,1.59375 -1.29688,1.57813 -1.29688,4.54688 v 9.21875 h -2.89062 v -17.5 h 2.89062 v 2.71875 q 0.90625,-1.59375 2.35938,-2.35938 1.45312,-0.78125 3.53125,-0.78125 0.29687,0 0.65625,0.0469 0.35937,0.0312 0.79687,0.10937 z" />
      <path
         id="path1293"
         style="font-size:32px"
         d="m 548.40039,140.47461 h 2.875 v 17.5 h -2.875 z m 0,-6.8125 h 2.875 v 3.64062 h -2.875 z" />
      <path
         id="path1295"
         style="font-size:32px"
         d="m 556.02539,140.47461 h 13.65625 v 2.625 l -10.8125,12.57812 h 10.8125 v 2.29688 h -14.04687 v -2.625 l 10.8125,-12.57813 h -10.42188 z" />
      <path
         id="path1297"
         style="font-size:32px"
         d="m 580.86914,142.49023 q -2.3125,0 -3.65625,1.8125 -1.34375,1.79688 -1.34375,4.9375 0,3.14063 1.32813,4.95313 1.34375,1.79687 3.67187,1.79687 2.29688,0 3.64063,-1.8125 1.34375,-1.8125 1.34375,-4.9375 0,-3.10937 -1.34375,-4.92187 -1.34375,-1.82813 -3.64063,-1.82813 z m 0,-2.4375 q 3.75,0 5.89063,2.4375 2.14062,2.4375 2.14062,6.75 0,4.29688 -2.14062,6.75 -2.14063,2.4375 -5.89063,2.4375 -3.76562,0 -5.90625,-2.4375 -2.125,-2.45312 -2.125,-6.75 0,-4.3125 2.125,-6.75 2.14063,-2.4375 5.90625,-2.4375 z" />
      <path
         id="path1299"
         style="font-size:32px"
         d="m 608.19727,147.41211 v 10.5625 h -2.875 v -10.46875 q 0,-2.48438 -0.96875,-3.71875 -0.96875,-1.23438 -2.90625,-1.23438 -2.32813,0 -3.67188,1.48438 -1.34375,1.48437 -1.34375,4.04687 v 9.89063 h -2.89062 v -17.5 h 2.89062 v 2.71875 q 1.03125,-1.57813 2.42188,-2.35938 1.40625,-0.78125 3.23437,-0.78125 3.01563,0 4.5625,1.875 1.54688,1.85938 1.54688,5.48438 z" />
      <path
         id="path1301"
         style="font-size:32px"
         d="m 616.80664,135.50586 v 4.96875 h 5.92188 v 2.23437 h -5.92188 v 9.5 q 0,2.14063 0.57813,2.75 0.59375,0.60938 2.39062,0.60938 h 2.95313 v 2.40625 h -2.95313 q -3.32812,0 -4.59375,-1.23438 -1.26562,-1.25 -1.26562,-4.53125 v -9.5 h -2.10938 v -2.23437 h 2.10938 v -4.96875 z" />
      <path
         id="path1303"
         style="font-size:32px"
         d="m 634.47852,149.17773 q -3.48438,0 -4.82813,0.79688 -1.34375,0.79687 -1.34375,2.71875 0,1.53125 1,2.4375 1.01563,0.89062 2.75,0.89062 2.39063,0 3.82813,-1.6875 1.45312,-1.70312 1.45312,-4.51562 v -0.64063 z m 5.73437,-1.1875 v 9.98438 h -2.875 v -2.65625 q -0.98437,1.59375 -2.45312,2.35937 -1.46875,0.75 -3.59375,0.75 -2.6875,0 -4.28125,-1.5 -1.57813,-1.51562 -1.57813,-4.04687 0,-2.95313 1.96875,-4.45313 1.98438,-1.5 5.90625,-1.5 h 4.03125 v -0.28125 q 0,-1.98437 -1.3125,-3.0625 -1.29687,-1.09375 -3.65625,-1.09375 -1.5,0 -2.92187,0.35938 -1.42188,0.35937 -2.73438,1.07812 v -2.65625 q 1.57813,-0.60937 3.0625,-0.90625 1.48438,-0.3125 2.89063,-0.3125 3.79687,0 5.67187,1.96875 1.875,1.96875 1.875,5.96875 z" />
      <path
         id="path1305"
         style="font-size:32px"
         d="m 646.15039,133.66211 h 2.875 v 24.3125 h -2.875 z" />
    </g>
    <g
       id="text1199"
       style="font-style:normal;font-weight:normal;font-size:8.46666622px;line-height:1.25;font-family:sans-serif;letter-spacing:0px;word-spacing:0px;fill:#000000;fill-opacity:1;stroke:none;stroke-width:0.26458332"
       aria-label="Vertical">
      <path
         id="path1308"
         style="stroke-width:0.26458332"
         d="m 80.663665,21.077379 -2.356446,-6.172233 h 0.872299 l 1.955436,5.196582 1.95957,-5.196582 h 0.868164 l -2.352311,6.172233 z" />
      <path
         id="path1310"
         style="stroke-width:0.26458332"
         d="m 88.125741,18.572106 v 0.37207 H 84.62828 q 0.04961,0.785482 0.471289,1.198893 0.425814,0.409278 1.182357,0.409278 0.438216,0 0.847493,-0.107487 0.413412,-0.107487 0.818555,-0.322461 v 0.719336 q -0.409277,0.173633 -0.839225,0.264583 -0.429948,0.09095 -0.872298,0.09095 -1.107943,0 -1.756999,-0.644922 -0.644922,-0.644922 -0.644922,-1.744597 0,-1.136881 0.611849,-1.802473 0.615983,-0.669727 1.65778,-0.669727 0.93431,0 1.475879,0.603581 0.545703,0.599446 0.545703,1.632975 z m -0.760677,-0.223242 q -0.0083,-0.624252 -0.3514,-0.996322 -0.338997,-0.37207 -0.901237,-0.37207 -0.636653,0 -1.021126,0.359668 -0.380338,0.359668 -0.438216,1.012858 z" />
      <path
         id="path1312"
         style="stroke-width:0.26458332"
         d="m 92.057283,17.158239 q -0.128157,-0.07441 -0.28112,-0.107487 -0.148828,-0.03721 -0.330729,-0.03721 -0.644922,0 -0.992187,0.421679 -0.343132,0.417546 -0.343132,1.203028 v 2.439127 h -0.764811 v -4.630208 h 0.764811 v 0.719336 q 0.239779,-0.42168 0.624251,-0.624251 0.384473,-0.206706 0.93431,-0.206706 0.07855,0 0.173633,0.0124 0.09508,0.0083 0.21084,0.02894 z" />
      <path
         id="path1314"
         style="stroke-width:0.26458332"
         d="m 93.615845,15.132523 v 1.314648 h 1.566829 v 0.591178 h -1.566829 v 2.513542 q 0,0.566374 0.152962,0.727604 0.157096,0.161231 0.632519,0.161231 h 0.781348 v 0.636653 h -0.781348 q -0.880566,0 -1.215429,-0.326595 -0.334864,-0.330729 -0.334864,-1.198893 v -2.513542 h -0.558105 v -0.591178 h 0.558105 v -1.314648 z" />
      <path
         id="path1316"
         style="stroke-width:0.26458332"
         d="m 96.187264,16.447171 h 0.760677 v 4.630208 h -0.760677 z m 0,-1.802474 h 0.760677 v 0.963249 h -0.760677 z" />
      <path
         id="path1318"
         style="stroke-width:0.26458332"
         d="m 101.86754,16.624938 v 0.711068 q -0.32246,-0.177767 -0.64906,-0.264584 -0.32246,-0.09095 -0.65319,-0.09095 -0.740006,0 -1.149283,0.471289 -0.409277,0.467155 -0.409277,1.314648 0,0.847494 0.409277,1.318783 0.409277,0.467155 1.149283,0.467155 0.33073,0 0.65319,-0.08682 0.3266,-0.09095 0.64906,-0.268717 v 0.702799 q -0.31833,0.148828 -0.66146,0.223242 -0.339,0.07441 -0.72347,0.07441 -1.045933,0 -1.661916,-0.657325 -0.615983,-0.657324 -0.615983,-1.773535 0,-1.132747 0.620118,-1.781803 0.624251,-0.649056 1.707391,-0.649056 0.3514,0 0.68626,0.07441 0.33486,0.07028 0.64906,0.214974 z" />
      <path
         id="path1320"
         style="stroke-width:0.26458332"
         d="m 105.30299,18.749873 q -0.92191,0 -1.27745,0.21084 -0.35553,0.21084 -0.35553,0.719336 0,0.405143 0.26458,0.644921 0.26872,0.235645 0.72761,0.235645 0.63252,0 1.01286,-0.446484 0.38447,-0.450619 0.38447,-1.194759 v -0.169499 z m 1.51722,-0.314193 v 2.641699 h -0.76068 V 20.37458 q -0.26045,0.421679 -0.64906,0.624251 -0.3886,0.198438 -0.95084,0.198438 -0.71107,0 -1.13275,-0.396875 -0.41755,-0.40101 -0.41755,-1.070736 0,-0.781348 0.5209,-1.178223 0.52503,-0.396875 1.5627,-0.396875 h 1.0666 v -0.07441 q 0,-0.525032 -0.34727,-0.810286 -0.34313,-0.289388 -0.96738,-0.289388 -0.39688,0 -0.77308,0.09509 -0.3762,0.09508 -0.72347,0.285253 v -0.702799 q 0.41755,-0.16123 0.81029,-0.239779 0.39274,-0.08268 0.76481,-0.08268 1.00459,0 1.50068,0.520898 0.4961,0.520899 0.4961,1.579232 z" />
      <path
         id="path1322"
         style="stroke-width:0.26458332"
         d="m 108.39117,14.644697 h 0.76068 v 6.432682 h -0.76068 z" />
    </g>
    <path
       id="path1201"
       d="M 61.988093,50.559522 C 61.351434,38.597392 65.010478,21.077381 76.729166,21.077381"
       style="fill:none;stroke:#000000;stroke-width:1;stroke-linecap:butt;stroke-linejoin:miter;stroke-miterlimit:4;stroke-dasharray:none;stroke-opacity:1" />
  </g>
</svg>
