<?xml version="1.0" encoding="UTF-8" standalone="no"?>
<!-- Created with Inkscape (http://www.inkscape.org/) -->

<svg
   xmlns:dc="http://purl.org/dc/elements/1.1/"
   xmlns:cc="http://creativecommons.org/ns#"
   xmlns:rdf="http://www.w3.org/1999/02/22-rdf-syntax-ns#"
   xmlns:svg="http://www.w3.org/2000/svg"
   xmlns="http://www.w3.org/2000/svg"
   xmlns:sodipodi="http://sodipodi.sourceforge.net/DTD/sodipodi-0.dtd"
   xmlns:inkscape="http://www.inkscape.org/namespaces/inkscape"
   width="349.22427mm"
   height="178.68901mm"
   viewBox="0 0 349.22427 178.68901"
   version="1.1"
   id="svg1222"
   inkscape:version="0.92.2 5c3e80d, 2017-08-06"
   sodipodi:docname="layout_scrollView02.svg">
  <defs
     id="defs1216" />
  <sodipodi:namedview
     id="base"
     pagecolor="#ffffff"
     bordercolor="#666666"
     borderopacity="1.0"
     inkscape:pageopacity="0.0"
     inkscape:pageshadow="2"
     inkscape:zoom="0.49497475"
     inkscape:cx="607.13345"
     inkscape:cy="388.89359"
     inkscape:document-units="mm"
     inkscape:current-layer="layer1-3"
     showgrid="false"
     inkscape:window-width="1440"
     inkscape:window-height="772"
     inkscape:window-x="12"
     inkscape:window-y="9"
     inkscape:window-maximized="0"
     fit-margin-top="10"
     fit-margin-left="10"
     fit-margin-right="10"
     fit-margin-bottom="10"
     showguides="false" />
  <metadata
     id="metadata1219">
    <rdf:RDF>
      <cc:Work
         rdf:about="">
        <dc:format>image/svg+xml</dc:format>
        <dc:type
           rdf:resource="http://purl.org/dc/dcmitype/StillImage" />
        <dc:title></dc:title>
      </cc:Work>
    </rdf:RDF>
  </metadata>
  <g
     inkscape:label="レイヤー 1"
     inkscape:groupmode="layer"
     id="layer1"
     transform="translate(-26.325721,-23.239519)">
    <g
       transform="translate(-28.922585,-24.856058)"
       id="layer1-3">
      <path
         inkscape:connector-curvature="0"
         id="rect10"
         d="M 65.748306,58.595577 H 145.39462 V 216.28459 H 65.748306 Z"
         style="fill:none;fill-opacity:0.94117647;stroke:#000000;stroke-width:1;stroke-miterlimit:4;stroke-dasharray:none;stroke-dashoffset:0;stroke-opacity:0.94117647" />
      <path
         inkscape:connector-curvature="0"
         id="rect18-9"
         d="M 137.64381,96.815109 H 201.7885 V 178.06505 H 137.64381 Z"
         style="fill:#b3b3b3;fill-opacity:0.94117647;stroke:#000000;stroke-width:0.5;stroke-miterlimit:4;stroke-dasharray:0.5, 0.5;stroke-dashoffset:0;stroke-opacity:0.94117647" />
      <path
         inkscape:connector-curvature="0"
         id="rect18-9-9"
         d="m 201.7885,96.815104 h 64.14469 V 178.06505 H 201.7885 Z"
         style="fill:#e6e6e6;fill-opacity:0.94117647;stroke:#000000;stroke-width:0.5;stroke-miterlimit:4;stroke-dasharray:0.5, 0.5;stroke-dashoffset:0;stroke-opacity:0.94117647" />
      <path
         inkscape:connector-curvature="0"
         id="rect18-9-9-9"
         d="m 265.93319,96.815094 h 64.14469 v 81.249956 h -64.14469 z"
         style="fill:#f9f9f9;fill-opacity:0.94117647;stroke:#000000;stroke-width:0.5;stroke-miterlimit:4;stroke-dasharray:0.5, 0.5;stroke-dashoffset:0;stroke-opacity:0.94117647" />
      <path
         inkscape:connector-curvature="0"
         id="rect18-9-9-9-1"
         d="m 330.07788,96.815094 h 64.14469 v 81.249956 h -64.14469 z"
         style="fill:#e6e6e6;fill-opacity:0.94117647;stroke:#000000;stroke-width:0.5;stroke-miterlimit:4;stroke-dasharray:0.5, 0.5;stroke-dashoffset:0;stroke-opacity:0.94117647" />
      <g
         id="flowRoot20"
         style="font-style:normal;font-weight:normal;font-size:16px;line-height:1.25;font-family:sans-serif;letter-spacing:0px;word-spacing:0px;fill:#000000;fill-opacity:1;stroke:none"
         transform="matrix(0.26458333,0,0,0.26458333,79.64632,-3.7417733)"
         aria-label="ScrollView">
        <g
           aria-label="ContentsView"
           style="font-style:normal;font-weight:normal;font-size:16px;line-height:1.25;font-family:sans-serif;letter-spacing:0px;word-spacing:0px;fill:#000000;fill-opacity:1;stroke:none"
           id="text2141">
          <path
             d="m 482.56572,340.18055 v 2.77344 q -1.32813,-1.23698 -2.83855,-1.84896 -1.49739,-0.61198 -3.1901,-0.61198 -3.33333,0 -5.10417,2.04427 -1.77083,2.03125 -1.77083,5.88542 0,3.84115 1.77083,5.88542 1.77084,2.03125 5.10417,2.03125 1.69271,0 3.1901,-0.61198 1.51042,-0.61198 2.83855,-1.84896 v 2.74739 q -1.38021,0.9375 -2.92969,1.40625 -1.53646,0.46875 -3.25521,0.46875 -4.41406,0 -6.95313,-2.69531 -2.53906,-2.70833 -2.53906,-7.38281 0,-4.6875 2.53906,-7.38281 2.53907,-2.70834 6.95313,-2.70834 1.74479,0 3.28125,0.46875 1.54948,0.45573 2.90365,1.38021 z"
             style="font-size:26.66666794px"
             id="path2179" />
          <path
             d="m 492.20113,345.21961 q -1.92708,0 -3.04687,1.51042 -1.11979,1.4974 -1.11979,4.11458 0,2.61719 1.10677,4.12761 1.11979,1.49739 3.05989,1.49739 1.91406,0 3.03386,-1.51041 1.11979,-1.51042 1.11979,-4.11459 0,-2.59114 -1.11979,-4.10156 -1.1198,-1.52344 -3.03386,-1.52344 z m 0,-2.03125 q 3.125,0 4.90886,2.03125 1.78385,2.03125 1.78385,5.625 0,3.58073 -1.78385,5.625 -1.78386,2.03125 -4.90886,2.03125 -3.13802,0 -4.92187,-2.03125 -1.77084,-2.04427 -1.77084,-5.625 0,-3.59375 1.77084,-5.625 1.78385,-2.03125 4.92187,-2.03125 z"
             style="font-size:26.66666794px"
             id="path2181" />
          <path
             d="m 514.97457,349.32118 v 8.80208 h -2.39583 v -8.72396 q 0,-2.07031 -0.80729,-3.09896 -0.8073,-1.02864 -2.42188,-1.02864 -1.9401,0 -3.0599,1.23698 -1.11979,1.23698 -1.11979,3.37239 v 8.24219 h -2.40885 v -14.58333 h 2.40885 v 2.26562 q 0.85938,-1.3151 2.01823,-1.96614 1.17188,-0.65105 2.69531,-0.65105 2.51303,0 3.80209,1.5625 1.28906,1.54948 1.28906,4.57032 z"
             style="font-size:26.66666794px"
             id="path2183" />
          <path
             d="m 522.14905,339.3993 v 4.14063 h 4.93489 v 1.86198 h -4.93489 v 7.91666 q 0,1.78386 0.48177,2.29167 0.49479,0.50781 1.99219,0.50781 h 2.46093 v 2.00521 h -2.46093 q -2.77344,0 -3.82813,-1.02865 -1.05469,-1.04166 -1.05469,-3.77604 v -7.91666 h -1.75781 v -1.86198 h 1.75781 v -4.14063 z"
             style="font-size:26.66666794px"
             id="path2185" />
          <path
             d="m 542.72197,350.23264 v 1.17187 h -11.01563 q 0.15625,2.47396 1.48438,3.77604 1.34114,1.28906 3.72396,1.28906 1.38021,0 2.66927,-0.33854 1.30208,-0.33854 2.57812,-1.01562 v 2.26562 q -1.28906,0.54688 -2.64323,0.83334 -1.35416,0.28645 -2.74739,0.28645 -3.48959,0 -5.53386,-2.03125 -2.03125,-2.03125 -2.03125,-5.49479 0,-3.58073 1.92709,-5.67708 1.9401,-2.10938 5.22135,-2.10938 2.94271,0 4.64844,1.90105 1.71875,1.88802 1.71875,5.14323 z m -2.39583,-0.70313 q -0.0261,-1.96615 -1.10678,-3.13802 -1.0677,-1.17188 -2.83854,-1.17188 -2.00521,0 -3.21614,1.13282 -1.19792,1.13281 -1.38021,3.1901 z"
             style="font-size:26.66666794px"
             id="path2187" />
          <path
             d="m 558.77665,349.32118 v 8.80208 h -2.39583 v -8.72396 q 0,-2.07031 -0.80729,-3.09896 -0.80729,-1.02864 -2.42188,-1.02864 -1.9401,0 -3.05989,1.23698 -1.1198,1.23698 -1.1198,3.37239 v 8.24219 h -2.40885 v -14.58333 h 2.40885 v 2.26562 q 0.85938,-1.3151 2.01823,-1.96614 1.17188,-0.65105 2.69532,-0.65105 2.51302,0 3.80208,1.5625 1.28906,1.54948 1.28906,4.57032 z"
             style="font-size:26.66666794px"
             id="path2189" />
          <path
             d="m 565.95113,339.3993 v 4.14063 h 4.9349 v 1.86198 h -4.9349 v 7.91666 q 0,1.78386 0.48177,2.29167 0.4948,0.50781 1.99219,0.50781 h 2.46094 v 2.00521 h -2.46094 q -2.77344,0 -3.82812,-1.02865 -1.05469,-1.04166 -1.05469,-3.77604 v -7.91666 h -1.75781 v -1.86198 h 1.75781 v -4.14063 z"
             style="font-size:26.66666794px"
             id="path2191" />
          <path
             d="m 583.34697,343.96961 v 2.26563 q -1.01563,-0.52083 -2.10938,-0.78125 -1.09375,-0.26042 -2.26562,-0.26042 -1.78386,0 -2.68229,0.54688 -0.88542,0.54687 -0.88542,1.64062 0,0.83334 0.63802,1.31511 0.63802,0.46875 2.5651,0.89843 l 0.82032,0.1823 q 2.55208,0.54687 3.61979,1.54948 1.08073,0.98958 1.08073,2.77343 0,2.03125 -1.61459,3.21615 -1.60156,1.18489 -4.41406,1.18489 -1.17187,0 -2.44792,-0.23437 -1.26302,-0.22135 -2.66927,-0.67708 v -2.47396 q 1.32813,0.6901 2.61719,1.04166 1.28906,0.33855 2.55208,0.33855 1.69271,0 2.60417,-0.57292 0.91146,-0.58594 0.91146,-1.64063 0,-0.97656 -0.66406,-1.49739 -0.65104,-0.52083 -2.87761,-1.00261 l -0.83333,-0.19531 q -2.22656,-0.46875 -3.21615,-1.43229 -0.98958,-0.97656 -0.98958,-2.66927 0,-2.05729 1.45833,-3.17708 1.45834,-1.1198 4.14063,-1.1198 1.32812,0 2.5,0.19532 1.17187,0.19531 2.16146,0.58593 z"
             style="font-size:26.66666794px"
             id="path2193" />
          <path
             d="m 593.07353,358.12326 -7.42188,-19.4401 h 2.7474 l 6.15885,16.36718 6.17188,-16.36718 h 2.73438 l -7.40886,19.4401 z"
             style="font-size:26.66666794px"
             id="path2195" />
          <path
             d="m 605.63863,343.53993 h 2.39583 v 14.58333 h -2.39583 z m 0,-5.67709 h 2.39583 v 3.03386 h -2.39583 z"
             style="font-size:26.66666794px"
             id="path2197" />
          <path
             d="m 625.53447,350.23264 v 1.17187 h -11.01563 q 0.15625,2.47396 1.48437,3.77604 1.34115,1.28906 3.72396,1.28906 1.38021,0 2.66927,-0.33854 1.30209,-0.33854 2.57813,-1.01562 v 2.26562 q -1.28906,0.54688 -2.64323,0.83334 -1.35417,0.28645 -2.7474,0.28645 -3.48958,0 -5.53385,-2.03125 -2.03125,-2.03125 -2.03125,-5.49479 0,-3.58073 1.92708,-5.67708 1.94011,-2.10938 5.22136,-2.10938 2.94271,0 4.64844,1.90105 1.71875,1.88802 1.71875,5.14323 z m -2.39584,-0.70313 q -0.026,-1.96615 -1.10677,-3.13802 -1.06771,-1.17188 -2.83854,-1.17188 -2.00521,0 -3.21615,1.13282 -1.19791,1.13281 -1.38021,3.1901 z"
             style="font-size:26.66666794px"
             id="path2199" />
          <path
             d="m 628.07353,343.53993 h 2.39583 l 2.99479,11.38021 2.98177,-11.38021 h 2.82552 l 2.9948,11.38021 2.98177,-11.38021 h 2.39583 l -3.8151,14.58333 h -2.82552 l -3.13803,-11.95313 -3.15104,11.95313 h -2.82552 z"
             style="font-size:26.66666794px"
             id="path2201" />
        </g>
      </g>
      <path
         style="fill:none;fill-opacity:0.94117647;stroke:#000000;stroke-width:1.5;stroke-miterlimit:4;stroke-dasharray:none;stroke-dashoffset:0;stroke-opacity:0.94117647"
         d="M 73.499123,96.815109 H 394.22257 V 178.06505 H 73.499123 Z"
         id="rect2119" />
      <path
         inkscape:connector-curvature="0"
         id="rect18"
         d="M 73.499123,96.815109 H 137.64381 V 178.06505 H 73.499123 Z"
         style="fill:#cccccc;fill-opacity:0.94117647;stroke:#ff5555;stroke-width:1;stroke-miterlimit:4;stroke-dasharray:none;stroke-dashoffset:0;stroke-opacity:0.94117647" />
      <g
         style="font-style:normal;font-weight:normal;font-size:16px;line-height:1.25;font-family:sans-serif;letter-spacing:0px;word-spacing:0px;fill:#000000;fill-opacity:1;stroke:none"
         id="flowRoot2143" />
      <g
         aria-label="(実際に見えている領域)"
         style="font-style:normal;font-weight:normal;font-size:4.23333311px;line-height:1.25;font-family:sans-serif;letter-spacing:0px;word-spacing:0px;fill:#000000;fill-opacity:1;stroke:none;stroke-width:0.26458332"
         id="text2177">
        <path
           d="m 70.17185,93.562133 h -0.444417 q -0.571886,-0.73036 -0.89917,-1.595079 -0.327284,-0.864719 -0.327284,-1.712213 0,-0.961181 0.347955,-1.784559 0.347954,-0.823378 0.878499,-1.526177 h 0.444417 q -0.613227,1.005968 -0.823377,1.763889 -0.206706,0.75792 -0.206706,1.539957 0,1.663981 1.030083,3.314182 z"
           style="font-size:7.05555534px;stroke-width:0.26458332"
           id="path2206" />
        <path
           d="m 76.741647,88.129217 h -0.523654 v -0.706244 h -4.506185 v 0.706244 h -0.530545 v -1.219563 h 2.497695 V 86.24475 h 0.564995 v 0.664904 h 2.497694 z m 0.430637,3.837837 -0.354845,0.489203 q -1.99471,-0.437527 -2.814643,-1.615749 -0.313503,0.726915 -1.030083,1.085205 -0.713135,0.35829 -1.918918,0.558105 l -0.289388,-0.516764 q 1.309136,-0.18259 1.887912,-0.465088 0.578776,-0.285943 0.778592,-0.726915 h -2.511475 v -0.513319 h 2.683729 q 0.08268,-0.254938 0.07579,-0.509875 h -2.025717 v -0.513319 h 2.053277 v -0.489203 h -2.222086 v -0.52021 h 2.222086 v -0.671793 h 0.537435 v 0.671793 h 2.256538 v 0.52021 h -2.256538 v 0.489203 h 2.101508 v 0.513319 h -2.115288 q -0.01723,0.378961 -0.05857,0.509875 h 2.921441 v 0.513319 h -2.459798 q 0.609782,0.757921 2.539035,1.192003 z"
           style="font-size:7.05555534px;stroke-width:0.26458332"
           id="path2208" />
        <path
           d="m 84.193389,89.555487 -0.334175,0.444417 Q 83.118519,89.538261 82.79468,89.004272 H 82.7809 v 0.289388 h -1.60886 v -0.189481 h -0.01378 q -0.434082,0.547771 -1.198894,1.064535 -0.155029,0.726915 -0.706244,0.726915 -0.16881,0 -0.423747,-0.06201 l -0.141249,-0.578776 q 0.434082,0.130914 0.516765,0.130914 0.217041,0 0.217041,-0.399631 0,-0.551215 -0.661459,-1.27813 l 0.571886,-1.60886 H 78.681236 V 92.55961 H 78.143801 V 86.585815 H 79.9008 v 0.53399 l -0.54088,1.502061 q 0.420301,0.489204 0.564995,0.854384 0.34451,-0.165365 0.606337,-0.451308 -0.161919,-0.192925 -0.423746,-0.36518 0.04479,-0.06201 0.175699,-0.18259 0.134359,-0.124023 0.18259,-0.192925 0.213596,0.158474 0.375516,0.382405 0.07924,-0.08613 0.20326,-0.289388 -0.07579,-0.09646 -0.506429,-0.396186 l 0.303169,-0.396186 q 0.08613,0.05168 0.37896,0.289388 0.06201,-0.158474 0.120579,-0.513319 h -0.551216 q -0.268717,0.826823 -0.823377,1.409044 l -0.478869,-0.251492 q 0.871609,-1.054199 1.050754,-2.370225 l 0.506429,0.148139 q -0.03445,0.251492 -0.113688,0.54777 h 0.974962 q -0.05168,1.247124 -0.523654,1.963704 h 1.27813 q -0.675239,-1.10243 -0.802707,-2.604492 h 0.499539 q 0,0.316949 0.20326,1.102431 0.206706,0.782036 0.289388,0.782036 0.05512,0 0.234267,-0.409966 0.179145,-0.409966 0.19637,-0.437527 h -0.682129 v -0.513319 h 1.247125 v 0.465088 q 0,0.151584 -0.241157,0.627007 -0.237711,0.475423 -0.447862,0.761366 0.199815,0.392741 1.036974,0.974962 z m -0.623563,0.830268 h -1.295355 v 1.595079 q 0,0.241157 -0.189481,0.392741 -0.186035,0.151584 -0.440972,0.151584 h -0.564996 l -0.155029,-0.506429 0.509874,0.01378 q 0.179145,0.0069 0.230822,-0.04823 0.05168,-0.05857 0.05168,-0.192925 v -1.405599 h -1.326362 v -0.513319 h 3.179823 z m -2.242757,0.516764 q -0.375515,0.585666 -1.312581,1.25746 l -0.3514,-0.416856 q 0.850939,-0.554661 1.285021,-1.185113 z m 2.842204,0.875054 -0.385851,0.430637 Q 83.321779,91.498521 82.44328,90.92319 l 0.378961,-0.35829 q 0.819932,0.513319 1.347032,1.212673 z"
           style="font-size:7.05555534px;stroke-width:0.26458332"
           id="path2210" />
        <path
           d="m 87.111384,90.365084 q -0.375515,0.840604 -0.613227,1.770779 H 86.03307 q -0.564996,-1.071424 -0.564996,-2.638943 0,-1.309136 0.389296,-2.911105 l 0.685574,0.217041 q -0.451308,1.412489 -0.451308,2.71818 0,0.88539 0.137804,1.402154 h 0.01722 q 0.172255,-0.471978 0.316949,-0.726915 z m 3.183269,-3.159152 -0.08268,0.654568 q -0.454752,-0.08268 -1.243679,-0.08268 -0.654568,0 -1.502062,0.141249 l -0.07924,-0.664904 q 1.036974,-0.106798 1.567518,-0.106798 0.906061,0 1.340143,0.05857 z m 0.423746,3.965305 -0.155029,0.713134 q -0.988742,0.07579 -1.60886,0.07579 -1.026638,0 -1.391818,-0.16881 -0.36518,-0.16881 -0.36518,-0.754476 0,-0.292833 0.07924,-0.620117 l 0.661458,0.141249 q -0.113688,0.334174 -0.113688,0.478868 0,0.16881 0.1757,0.237712 0.1757,0.06546 0.757921,0.06546 0.465088,0 1.960259,-0.168809 z"
           style="font-size:7.05555534px;stroke-width:0.26458332"
           id="path2212" />
        <path
           d="m 98.259713,91.023098 q -0.148139,0.551215 -0.337619,0.875054 -0.189481,0.323839 -0.558106,0.323839 h -1.260905 q -0.544325,0 -0.544325,-0.544325 v -1.198893 h -0.706244 q -0.223931,1.784559 -2.559706,2.125623 L 92.01031,92.060071 q 1.219564,-0.165364 1.705322,-0.54777 0.489204,-0.385851 0.564996,-1.033528 h -1.023193 v -3.923964 h 3.844726 v 3.923964 h -1.005968 v 1.016303 q 0,0.21015 0.16881,0.21015 h 1.050754 q 0.279053,0 0.437527,-0.957736 z M 96.568171,87.66413 v -0.592557 h -2.773302 v 0.592557 z m 0,1.085205 v -0.571886 h -2.773302 v 0.571886 z m 0,1.216118 v -0.699354 h -2.773302 v 0.699354 z"
           style="font-size:7.05555534px;stroke-width:0.26458332"
           id="path2214" />
        <path
           d="m 103.44114,86.823526 -0.11369,0.671794 q -1.42972,0 -2.65273,-0.275608 l 0.11025,-0.692464 q 0.76825,0.354845 2.19452,0.354845 0.16537,0 0.46165,-0.05857 z m 1.42971,5.312337 q -0.91984,0.106798 -1.34703,0.106798 -0.75103,0 -1.05076,-0.199815 -0.29627,-0.203261 -0.29627,-0.616672 l 0.0276,-0.833713 q 0,-0.192926 -0.0758,-0.268718 -0.0758,-0.07579 -0.24805,-0.07579 -0.28594,0 -0.4961,0.210151 -0.9784,0.995633 -1.577849,1.684652 l -0.516764,-0.406522 q 0.551215,-0.668348 1.495173,-1.574408 0.94395,-0.909505 1.63297,-1.398709 -1.96026,0.127469 -2.521807,0.127469 L 99.78589,88.170559 q 0.59945,0.0379 1.05764,0.0379 1.47795,0 2.91456,-0.220486 v 0.502983 l -1.54685,1.219564 q 0.28939,0 0.46164,0.206706 0.1757,0.203261 0.1757,0.582221 l -0.031,0.819933 q 0,0.144694 0.13781,0.217041 0.14125,0.07235 0.596,0.07235 0.37896,0 1.27124,-0.148139 z"
           style="font-size:7.05555534px;stroke-width:0.26458332"
           id="path2216" />
        <path
           d="m 111.75071,87.622788 q -0.46164,0.0379 -0.73381,0.08268 -0.26871,0.04479 -0.69246,0.316949 -0.4203,0.268717 -0.76137,0.637342 -0.33762,0.368625 -0.51332,0.72347 -0.1757,0.3514 -0.1757,0.637343 0,0.571886 0.58912,1.009413 0.58911,0.434082 1.59507,0.592556 l -0.33072,0.633898 q -1.11622,-0.254937 -1.80179,-0.850939 -0.68213,-0.599446 -0.68213,-1.364258 0,-0.564995 0.35485,-1.140326 0.35484,-0.575331 0.95773,-1.002523 l -0.0138,-0.01723 q -1.91892,0.141249 -3.02824,0.141249 l -0.16881,-0.726916 q 0.50643,0.02412 0.98875,0.02412 1.66742,0 4.34771,-0.320394 z"
           style="font-size:7.05555534px;stroke-width:0.26458332"
           id="path2218" />
        <path
           d="m 116.98036,90.385755 q -0.44786,1.033529 -0.8096,1.471056 -0.35829,0.434082 -0.70969,0.434082 -0.65112,0 -1.16444,-1.209229 -0.51332,-1.209228 -0.51332,-2.71129 0,-0.875054 0.0999,-1.650201 l 0.68213,0.15503 q -0.16881,0.654568 -0.16881,1.557183 0,0.802707 0.1757,1.546848 0.1757,0.740695 0.42719,1.188558 0.25494,0.447862 0.42719,0.447862 0.18948,0 0.43409,-0.434082 0.24804,-0.434082 0.46164,-1.126546 z m 1.96715,0.09302 -0.67868,0.120578 q -0.0999,-1.677762 -1.11966,-3.393419 l 0.62701,-0.254937 q 1.0163,1.922363 1.17133,3.527778 z"
           style="font-size:7.05555534px;stroke-width:0.26458332"
           id="path2220" />
        <path
           d="m 123.06095,88.580525 q 0.48232,-0.16192 0.99564,-0.16192 0.66145,0 1.16099,0.451308 0.50299,0.451307 0.50299,1.08865 0,0.720025 -0.44787,1.226454 -0.44786,0.502984 -0.99907,0.661458 -0.55122,0.15503 -0.99219,0.15503 -0.64423,0 -1.04731,-0.292833 -0.39963,-0.292834 -0.39963,-0.813043 0,-0.406521 0.28594,-0.661458 0.28594,-0.254937 0.6718,-0.254937 0.48231,0 0.93017,0.303168 0.44786,0.299723 0.69247,0.795817 0.30661,-0.151584 0.48575,-0.437527 0.17915,-0.289388 0.17915,-0.620117 0,-0.471978 -0.36863,-0.71658 -0.36862,-0.244602 -1.07142,-0.244602 -0.73725,0 -1.42627,0.341065 -0.90951,0.819932 -1.34703,1.150662 l -0.46509,-0.523655 q 1.50206,-1.061089 2.90766,-2.590712 -0.88194,0.120579 -1.53996,0.120579 -0.2825,0 -0.57877,-0.02067 l -0.0344,-0.678684 q 0.29972,0.04479 0.67179,0.04479 0.89228,0 2.44602,-0.234267 l 0.0723,0.585666 -1.2988,1.312582 z m 0.75448,2.731961 q -0.13436,-0.272163 -0.42375,-0.485759 -0.28939,-0.213596 -0.57188,-0.213596 -0.15159,0 -0.2515,0.08613 -0.0999,0.08268 -0.0999,0.20326 0,0.199816 0.23771,0.347955 0.24115,0.144694 0.596,0.144694 0.26872,0 0.51332,-0.08268 z"
           style="font-size:7.05555534px;stroke-width:0.26458332"
           id="path2222" />
        <path
           d="m 130.39212,87.888061 -0.3893,0.416856 q -0.47887,-0.73036 -1.10587,-1.133436 -0.16881,0.35829 -0.57189,0.930176 h 1.49517 v 0.513319 h -1.60886 v -0.3514 h -0.0138 q -0.23426,0.323839 -0.61323,0.726915 l -0.40996,-0.35829 q 1.02664,-0.961181 1.56063,-2.470133 l 0.46508,0.217041 -0.0999,0.310059 q 0.75447,0.506429 1.29191,1.198893 z m 3.11092,-0.816488 h -1.39526 q -0.0861,0.434082 -0.12058,0.513319 h 1.18511 v 3.641466 h -2.73196 v -3.641466 h 0.99563 q 0.0758,-0.230821 0.12058,-0.513319 h -1.46761 v -0.516764 h 3.41409 z m -0.86817,1.536513 v -0.506429 h -1.65709 v 0.506429 z m 0,1.016303 V 89.12485 h -1.65709 v 0.499539 z m 0,1.08865 v -0.571886 h -1.65709 v 0.571886 z m -2.61827,0.458198 q 0,0.220486 -0.1378,0.37207 -0.13781,0.148139 -0.35485,0.148139 h -0.4513 l -0.12747,-0.513319 h 0.38929 q 0.16192,0 0.16192,-0.16881 v -1.171332 h -0.78548 v 2.694064 h -0.52021 v -2.694064 h -0.6339 v -0.509874 h 2.4598 z m 3.60013,0.964626 -0.35485,0.403077 q -0.52021,-0.554661 -1.36081,-0.909506 l 0.36862,-0.368625 q 0.69591,0.261827 1.34704,0.875054 z m -2.01883,-0.485758 q -0.41341,0.468533 -1.43316,0.909505 -0.0482,-0.04479 -0.16881,-0.217041 -0.11713,-0.172255 -0.18259,-0.234266 0.9853,-0.35829 1.41938,-0.823378 z"
           style="font-size:7.05555534px;stroke-width:0.26458332"
           id="path2224" />
        <path
           d="m 140.74119,91.198797 q -0.20671,0.912951 -0.38585,1.140327 -0.17915,0.227376 -0.37897,0.227376 -0.19637,0 -0.37551,-0.213596 -0.1757,-0.213595 -0.48231,-0.878499 -0.47198,0.571886 -1.13344,1.016303 l -0.46853,-0.330729 q 0.93017,-0.606337 1.4056,-1.298801 -0.29628,-0.985297 -0.40308,-3.06958 h -2.37712 v -0.516764 h 2.32889 v -1.085205 h 0.53743 v 1.085205 h 0.56155 q -0.0723,-0.313504 -0.52021,-0.675239 l 0.55122,-0.1757 q 0.33762,0.372071 0.48576,0.850939 h 0.43063 v 0.516764 h -1.48139 q 0.0827,1.302246 0.27561,2.384006 0.36863,-0.623562 0.39963,-2.018826 l 0.50299,0.120579 q -0.0103,1.412489 -0.70625,2.673394 0.0861,0.279052 0.25149,0.613227 0.16537,0.334174 0.22049,0.334174 0.0586,0 0.14125,-0.341065 0.0827,-0.344509 0.1068,-0.682129 z m -4.28915,-0.248046 -1.86379,0.799262 -0.39964,-0.416857 0.97152,-0.389296 v -2.149739 h -0.79582 v -0.516764 h 0.79582 v -1.657091 h 0.53744 v 1.657091 h 0.69935 v 0.516764 h -0.69935 v 1.953369 l 0.75447,-0.3514 z m 1.87758,-0.51332 h -1.77767 v -2.080837 h 1.77767 z m -0.53744,-0.516764 v -1.050754 h -0.70624 v 1.050754 z m 0.75448,1.25746 -2.18419,0.747586 -0.32039,-0.471978 2.50458,-0.819933 z"
           style="font-size:7.05555534px;stroke-width:0.26458332"
           id="path2226" />
        <path
           d="m 141.68859,86.944105 q 0.57189,0.73036 0.89917,1.595079 0.32728,0.864719 0.32728,1.715657 0,0.957737 -0.34795,1.781115 -0.34796,0.823377 -0.8785,1.526177 h -0.44442 q 0.61323,-1.005968 0.81993,-1.760444 0.21016,-0.757921 0.21016,-1.539957 0,-1.667427 -1.03009,-3.317627 z"
           style="font-size:7.05555534px;stroke-width:0.26458332"
           id="path2228" />
      </g>
    </g>
  </g>
</svg>
