<?xml version="1.0" encoding="UTF-8" standalone="no"?>
<!-- Created with Inkscape (http://www.inkscape.org/) -->

<svg
   xmlns:dc="http://purl.org/dc/elements/1.1/"
   xmlns:cc="http://creativecommons.org/ns#"
   xmlns:rdf="http://www.w3.org/1999/02/22-rdf-syntax-ns#"
   xmlns:svg="http://www.w3.org/2000/svg"
   xmlns="http://www.w3.org/2000/svg"
   xmlns:sodipodi="http://sodipodi.sourceforge.net/DTD/sodipodi-0.dtd"
   xmlns:inkscape="http://www.inkscape.org/namespaces/inkscape"
   width="155.70605mm"
   height="95.961067mm"
   viewBox="0 0 155.70605 95.961067"
   version="1.1"
   id="svg8"
   inkscape:version="0.92.2 5c3e80d, 2017-08-06"
   sodipodi:docname="fd01.svg">
  <defs
     id="defs2" />
  <sodipodi:namedview
     id="base"
     pagecolor="#ffffff"
     bordercolor="#666666"
     borderopacity="1.0"
     inkscape:pageopacity="0.0"
     inkscape:pageshadow="2"
     inkscape:zoom="1"
     inkscape:cx="229.51539"
     inkscape:cy="264.71773"
     inkscape:document-units="mm"
     inkscape:current-layer="layer1"
     showgrid="false"
     inkscape:snap-global="false"
     showguides="false"
     inkscape:window-width="1440"
     inkscape:window-height="775"
     inkscape:window-x="0"
     inkscape:window-y="1"
     inkscape:window-maximized="1"
     fit-margin-top="10"
     fit-margin-left="10"
     fit-margin-right="10"
     fit-margin-bottom="10" />
  <metadata
     id="metadata5">
    <rdf:RDF>
      <cc:Work
         rdf:about="">
        <dc:format>image/svg+xml</dc:format>
        <dc:type
           rdf:resource="http://purl.org/dc/dcmitype/StillImage" />
        <dc:title></dc:title>
      </cc:Work>
    </rdf:RDF>
  </metadata>
  <g
     inkscape:label="レイヤー 1"
     inkscape:groupmode="layer"
     id="layer1"
     transform="translate(-23.613356,3.4225834)">
    <path
       style="fill:#0000ff;stroke:#0000ff;stroke-width:3;stroke-linecap:butt;stroke-linejoin:miter;stroke-miterlimit:4;stroke-dasharray:none;stroke-opacity:1"
       d="M 90.222916,67.077084 109.5375,34.533335"
       id="path4611"
       inkscape:connector-curvature="0"
       sodipodi:nodetypes="cc" />
    <rect
       style="fill:#ffffff;fill-opacity:1;stroke:#000000;stroke-width:0.51082575;stroke-miterlimit:4;stroke-dasharray:none;stroke-dashoffset:0;stroke-opacity:1"
       id="rect815"
       width="123.46934"
       height="9.9131718"
       x="34.428635"
       y="61.631668" />
    <g
       aria-label="0 1 2 3 4 5 6 7 ..."
       style="font-style:normal;font-weight:normal;font-size:10.58333302px;line-height:1.25;font-family:sans-serif;letter-spacing:0px;word-spacing:0px;fill:#000000;fill-opacity:1;stroke:none;stroke-width:0.26458332"
       id="text823">
      <path
         d="m 39.983945,74.797356 q 2.470134,0 2.470134,3.875732 0,1.958537 -0.640788,2.914551 -0.63562,0.950846 -1.829346,0.950846 -2.464966,0 -2.464966,-3.865397 0,-1.958537 0.63562,-2.914551 0.640788,-0.961181 1.829346,-0.961181 z m 0,6.976318 q 0.749308,0 1.131714,-0.72347 0.382406,-0.728638 0.382406,-2.377116 0,-1.147217 -0.170533,-1.803507 -0.165364,-0.661459 -0.506429,-0.981852 -0.335896,-0.325562 -0.847493,-0.325562 -0.749308,0 -1.126546,0.738973 -0.377238,0.738973 -0.377238,2.371948 0,1.131714 0.170532,1.793172 0.170532,0.661459 0.506429,0.98702 0.335897,0.320394 0.837158,0.320394 z"
         style="letter-spacing:1.88647902px;stroke-width:0.26458332"
         id="path4619"
         inkscape:connector-curvature="0" />
      <path
         d="m 53.611599,82.409294 h -0.930176 v -5.927286 q -0.697632,0.661458 -1.865519,1.121378 v -0.89917 q 1.607137,-0.769979 2.191081,-1.90686 h 0.604614 z"
         style="letter-spacing:1.88647902px;stroke-width:0.26458332"
         id="path4621"
         inkscape:connector-curvature="0" />
      <path
         d="m 67.585485,82.409294 h -5.017782 q 0,-0.640788 0.444418,-1.297078 0.449584,-0.656291 1.674316,-1.643311 0.749308,-0.599446 1.338419,-1.255737 0.589112,-0.661458 0.589112,-1.328084 0,-0.573609 -0.408244,-0.945679 -0.403076,-0.377238 -1.023193,-0.377238 -0.625285,0 -1.049032,0.387573 -0.423747,0.382406 -0.428914,1.147217 l -0.956014,-0.10852 q 0.08785,-1.064535 0.754476,-1.627808 0.671793,-0.563273 1.700154,-0.563273 1.116211,0 1.736328,0.620117 0.625285,0.61495 0.625285,1.488281 0,0.728638 -0.5271,1.477946 -0.521931,0.744141 -2.087727,1.99471 -0.821656,0.656291 -1.090373,1.131714 h 3.725871 z"
         style="letter-spacing:1.88647902px;stroke-width:0.26458332"
         id="path4623"
         inkscape:connector-curvature="0" />
      <path
         d="m 78.851526,78.311353 q 0.702799,0.134359 1.059366,0.682129 0.361735,0.542603 0.361735,1.18339 0,1.033529 -0.754476,1.700155 -0.749308,0.661458 -1.798339,0.661458 -1.002523,0 -1.653646,-0.583943 -0.651123,-0.583944 -0.759644,-1.545126 l 0.930176,-0.129191 q 0.139526,0.749308 0.506429,1.121379 0.37207,0.37207 0.976685,0.37207 0.651123,0 1.100708,-0.454753 0.454752,-0.45992 0.454752,-1.121378 0,-0.63562 -0.413411,-1.054199 -0.408244,-0.418579 -1.069702,-0.418579 -0.268718,0 -0.656291,0.09819 l 0.108521,-0.816488 q 0.37207,0 0.589111,-0.03617 0.217041,-0.03617 0.485758,-0.1757 0.268718,-0.139526 0.444418,-0.397909 0.175699,-0.263549 0.175699,-0.651123 0,-0.563273 -0.377238,-0.873331 -0.37207,-0.310059 -0.862996,-0.310059 -0.563273,0 -0.91984,0.356567 -0.3514,0.356568 -0.444418,1.018026 l -0.930175,-0.170532 q 0.180867,-0.98702 0.795817,-1.477946 0.620117,-0.490926 1.477946,-0.490926 0.945678,0 1.576131,0.573608 0.63562,0.568441 0.63562,1.395264 0,1.059367 -1.038696,1.524455 z"
         style="letter-spacing:1.88647902px;stroke-width:0.26458332"
         id="path4625"
         inkscape:connector-curvature="0" />
      <path
         d="m 92.835747,80.600619 h -1.023194 v 1.808675 H 90.882378 V 80.600619 H 87.600924 V 79.74279 l 3.446818,-4.909261 h 0.764811 v 4.909261 h 1.023194 z M 90.882378,79.74279 v -3.420979 h -0.02067 L 88.51043,79.74279 Z"
         style="letter-spacing:1.88647902px;stroke-width:0.26458332"
         id="path4627"
         inkscape:connector-curvature="0" />
      <path
         d="m 101.71434,77.856601 q 0.69246,-0.475424 1.4366,-0.475424 0.94568,0 1.64848,0.671794 0.7028,0.666626 0.7028,1.782837 0,1.126546 -0.71314,1.917195 -0.71313,0.785482 -1.87068,0.785482 -0.94568,0 -1.63815,-0.532267 -0.69246,-0.537435 -0.79581,-1.586466 l 0.97151,-0.07235 q 0.11886,0.718302 0.50643,1.074869 0.38758,0.3514 0.95602,0.3514 0.70796,0 1.14721,-0.532267 0.43925,-0.537435 0.43925,-1.317749 0,-0.795817 -0.44958,-1.255737 -0.44959,-0.459921 -1.15755,-0.459921 -0.89401,0 -1.3746,0.728638 l -0.8785,-0.103353 0.73898,-3.896403 h 3.75687 v 0.89917 h -3.0179 z"
         style="letter-spacing:1.88647902px;stroke-width:0.26458332"
         id="path4629"
         inkscape:connector-curvature="0" />
      <path
         d="m 114.02424,78.502556 q 0.64079,-1.002523 1.82418,-1.002523 0.93017,0 1.5813,0.687297 0.65112,0.687296 0.65112,1.756998 0,1.080038 -0.65112,1.839681 -0.64596,0.754476 -1.72083,0.754476 -1.09037,0 -1.86035,-0.806152 -0.76481,-0.806152 -0.76481,-2.868042 0,-2.025716 0.69246,-3.043742 0.69764,-1.023193 2.01539,-1.023193 0.85266,0 1.44177,0.475423 0.58911,0.475423 0.7183,1.410767 l -0.93018,0.08268 q -0.25321,-1.204061 -1.28157,-1.204061 -0.71314,0 -1.22473,0.707967 -0.5116,0.707967 -0.5116,2.232422 z m 1.66398,3.271118 q 0.64079,0 1.0387,-0.516764 0.39791,-0.516765 0.39791,-1.25057 0,-0.733805 -0.39791,-1.214396 -0.39791,-0.480591 -1.0697,-0.480591 -0.61495,0 -1.05937,0.454753 -0.44442,0.449585 -0.44442,1.188558 0,0.754476 0.43408,1.286743 0.43925,0.532267 1.10071,0.532267 z"
         style="letter-spacing:1.88647902px;stroke-width:0.26458332"
         id="path4631"
         inkscape:connector-curvature="0" />
      <path
         d="m 130.64912,75.655185 q -1.11621,1.224731 -1.93269,3.028238 -0.81649,1.803508 -0.96119,3.725871 h -0.95084 q 0.0362,-1.545125 0.75964,-3.389974 0.72864,-1.850016 1.88619,-3.183268 h -3.7052 v -0.89917 h 4.90409 z"
         style="letter-spacing:1.88647902px;stroke-width:0.26458332"
         id="path4633"
         inkscape:connector-curvature="0" />
      <path
         d="m 139.83778,82.409294 h -1.05937 v -1.059367 h 1.05937 z"
         style="letter-spacing:1.88647902px;stroke-width:0.26458332"
         id="path4635"
         inkscape:connector-curvature="0" />
      <path
         d="m 144.65948,82.409294 h -1.05937 v -1.059367 h 1.05937 z"
         style="letter-spacing:1.88647902px;stroke-width:0.26458332"
         id="path4637"
         inkscape:connector-curvature="0" />
      <path
         d="m 149.48118,82.409294 h -1.05937 v -1.059367 h 1.05937 z"
         style="letter-spacing:1.88647902px;stroke-width:0.26458332"
         id="path4639"
         inkscape:connector-curvature="0" />
    </g>
    <circle
       inkscape:tile-y0="61.506661"
       inkscape:tile-x0="34.303636"
       r="3.9267023"
       cy="66.493805"
       cx="40.039139"
       id="use4533"
       style="fill:#808080;fill-opacity:1;stroke:#808080;stroke-width:0.25;stroke-miterlimit:4;stroke-dasharray:none;stroke-dashoffset:0;stroke-opacity:1" />
    <circle
       inkscape:tile-y0="61.506661"
       inkscape:tile-x0="34.303636"
       r="3.9267023"
       cy="66.493805"
       cx="52.640461"
       id="use4535"
       style="fill:#808080;fill-opacity:1;stroke:#808080;stroke-width:0.25;stroke-miterlimit:4;stroke-dasharray:none;stroke-dashoffset:0;stroke-opacity:1" />
    <circle
       inkscape:tile-y0="61.506661"
       inkscape:tile-x0="34.303636"
       r="3.9267023"
       cy="66.493805"
       cx="65.241783"
       id="use4537"
       style="fill:#808080;fill-opacity:1;stroke:#808080;stroke-width:0.25;stroke-miterlimit:4;stroke-dasharray:none;stroke-dashoffset:0;stroke-opacity:1" />
    <circle
       inkscape:tile-y0="61.506661"
       inkscape:tile-x0="34.303636"
       r="3.9267023"
       cy="66.493805"
       cx="77.843102"
       id="use4539"
       style="fill:#808080;fill-opacity:1;stroke:#808080;stroke-width:0.25;stroke-miterlimit:4;stroke-dasharray:none;stroke-dashoffset:0;stroke-opacity:1" />
    <circle
       inkscape:tile-y0="61.506661"
       inkscape:tile-x0="34.303636"
       r="3.9267023"
       cy="66.493805"
       cx="90.44442"
       id="use4541"
       style="fill:#808080;fill-opacity:1;stroke:#808080;stroke-width:0.25;stroke-miterlimit:4;stroke-dasharray:none;stroke-dashoffset:0;stroke-opacity:1" />
    <circle
       inkscape:tile-y0="61.506661"
       inkscape:tile-x0="34.303636"
       r="3.9267023"
       cy="66.493805"
       cx="103.04575"
       id="use4543"
       style="fill:#808080;fill-opacity:1;stroke:#808080;stroke-width:0.25;stroke-miterlimit:4;stroke-dasharray:none;stroke-dashoffset:0;stroke-opacity:1" />
    <circle
       inkscape:tile-y0="61.506661"
       inkscape:tile-x0="34.303636"
       r="3.9267023"
       cy="66.493805"
       cx="115.64706"
       id="use4545"
       style="fill:#808080;fill-opacity:1;stroke:#808080;stroke-width:0.25;stroke-miterlimit:4;stroke-dasharray:none;stroke-dashoffset:0;stroke-opacity:1" />
    <circle
       inkscape:tile-y0="61.506661"
       inkscape:tile-x0="34.303636"
       r="3.9267023"
       cy="66.493805"
       cx="128.24838"
       id="use4547"
       style="fill:#808080;fill-opacity:1;stroke:#808080;stroke-width:0.25;stroke-miterlimit:4;stroke-dasharray:none;stroke-dashoffset:0;stroke-opacity:1" />
    <rect
       style="fill:#ffffff;fill-opacity:1;stroke:#000000;stroke-width:0.62364328;stroke-miterlimit:4;stroke-dasharray:none;stroke-dashoffset:0;stroke-opacity:1"
       id="rect4567"
       width="123.46935"
       height="14.536135"
       x="107.61381"
       y="81.345718"
       ry="0"
       transform="matrix(1,0,-0.76604444,0.64278761,0,0)" />
    <path
       style="fill:none;stroke:#000000;stroke-width:0.5;stroke-linecap:butt;stroke-linejoin:miter;stroke-miterlimit:4;stroke-dasharray:none;stroke-opacity:1"
       d="m 157.89798,71.547367 11.13531,-9.343649"
       id="path4573"
       inkscape:connector-curvature="0" />
    <path
       style="fill:none;stroke:#000000;stroke-width:0.5;stroke-linecap:butt;stroke-linejoin:miter;stroke-miterlimit:4;stroke-dasharray:none;stroke-opacity:1"
       d="m 169.03329,52.288019 v 9.915699"
       id="path4575"
       inkscape:connector-curvature="0" />
    <g
       id="g4609"
       transform="translate(6.0854163,-3.96875)">
      <path
         sodipodi:nodetypes="ccccccc"
         inkscape:connector-curvature="0"
         id="rect4577"
         d="m 99.251989,21.326301 0.04458,-3.108854 H 112.8349 V 40.896046 H 95.944697 V 21.420809 Z"
         style="fill:none;fill-opacity:1;stroke:#000000;stroke-width:0.45913044;stroke-miterlimit:4;stroke-dasharray:none;stroke-dashoffset:0;stroke-opacity:1" />
      <path
         inkscape:connector-curvature="0"
         id="path4583"
         d="m 98.40864,23.102188 h 11.5995"
         style="fill:none;stroke:#000000;stroke-width:0.26458332px;stroke-linecap:butt;stroke-linejoin:miter;stroke-opacity:1" />
      <path
         inkscape:connector-curvature="0"
         id="path4587"
         d="m 98.40864,27.405226 h 11.78658"
         style="fill:none;stroke:#000000;stroke-width:0.26458332px;stroke-linecap:butt;stroke-linejoin:miter;stroke-opacity:1" />
      <path
         inkscape:connector-curvature="0"
         id="path4591"
         d="M 98.595726,31.521177 109.63396,31.33409"
         style="fill:none;stroke:#000000;stroke-width:0.26458332px;stroke-linecap:butt;stroke-linejoin:miter;stroke-opacity:1" />
      <path
         inkscape:connector-curvature="0"
         id="path4602"
         d="m 95.944697,21.420809 3.351871,-3.203362"
         style="fill:none;stroke:#000000;stroke-width:0.5;stroke-linecap:butt;stroke-linejoin:miter;stroke-miterlimit:4;stroke-dasharray:none;stroke-opacity:1" />
    </g>
    <g
       aria-label="test.txt"
       style="font-style:normal;font-weight:normal;font-size:10.58333302px;line-height:1.25;font-family:sans-serif;letter-spacing:0px;word-spacing:0px;fill:#000000;fill-opacity:1;stroke:none;stroke-width:0.26458332"
       id="text4615">
      <path
         d="m 98.987747,6.5774166 v 1.1503173 h 1.370973 V 8.245015 h -1.370973 v 2.199349 q 0,0.495577 0.133842,0.636654 0.137459,0.141076 0.553455,0.141076 h 0.683676 v 0.557072 h -0.683676 q -0.770496,0 -1.063501,-0.28577 -0.293006,-0.289388 -0.293006,-1.049032 V 8.245015 H 97.830195 V 7.7277339 h 0.488342 V 6.5774166 Z"
         style="font-size:7.4083333px;stroke-width:0.26458332"
         id="path4642"
         inkscape:connector-curvature="0" />
      <path
         d="m 104.70316,9.587052 v 0.3255615 h -3.06028 q 0.0434,0.6872965 0.41238,1.0490315 0.37259,0.358118 1.03456,0.358118 0.38344,0 0.74156,-0.09405 0.36173,-0.09405 0.71623,-0.282154 v 0.629419 q -0.35811,0.151929 -0.73432,0.231511 -0.3762,0.07958 -0.76326,0.07958 -0.96945,0 -1.53737,-0.564306 -0.56431,-0.564307 -0.56431,-1.5265221 0,-0.9947713 0.53537,-1.5771647 0.53898,-0.5860107 1.45056,-0.5860107 0.81752,0 1.29139,0.5281331 0.47749,0.5245158 0.47749,1.4288534 z m -0.66559,-0.1953369 q -0.007,-0.5462199 -0.30748,-0.8717814 -0.29662,-0.3255616 -0.78858,-0.3255616 -0.55707,0 -0.89348,0.3147095 -0.3328,0.3147095 -0.38344,0.8862508 z"
         style="font-size:7.4083333px;stroke-width:0.26458332"
         id="path4644"
         inkscape:connector-curvature="0" />
      <path
         d="m 108.37839,7.8471065 v 0.6294189 q -0.28215,-0.144694 -0.58601,-0.217041 -0.30386,-0.072347 -0.62942,-0.072347 -0.49558,0 -0.74518,0.1519287 -0.24598,0.1519287 -0.24598,0.4557862 0,0.2315104 0.17725,0.3653523 0.17726,0.1302247 0.71262,0.2495972 l 0.2279,0.050643 q 0.709,0.1519287 1.00562,0.4304647 0.30024,0.2749185 0.30024,0.7704955 0,0.564307 -0.44855,0.893486 -0.44494,0.329178 -1.22628,0.329178 -0.32557,0 -0.68007,-0.06511 -0.35088,-0.06149 -0.74155,-0.188102 V 10.94356 q 0.36897,0.19172 0.72708,0.289388 0.35812,0.09405 0.70901,0.09405 0.47025,0 0.72347,-0.159163 0.25321,-0.162781 0.25321,-0.455786 0,-0.271301 -0.18448,-0.415995 -0.18087,-0.144694 -0.79944,-0.278536 l -0.23151,-0.054261 q -0.61857,-0.1302246 -0.89349,-0.3979085 -0.27491,-0.2713013 -0.27491,-0.7415568 0,-0.5715414 0.40514,-0.8826335 0.40514,-0.3110921 1.15032,-0.3110921 0.36897,0 0.69453,0.05426 0.32556,0.05426 0.60048,0.1627804 z"
         style="font-size:7.4083333px;stroke-width:0.26458332"
         id="path4646"
         inkscape:connector-curvature="0" />
      <path
         d="m 110.31729,6.5774166 v 1.1503173 h 1.37097 V 8.245015 h -1.37097 v 2.199349 q 0,0.495577 0.13384,0.636654 0.13746,0.141076 0.55345,0.141076 h 0.68368 v 0.557072 h -0.68368 q -0.77049,0 -1.0635,-0.28577 -0.293,-0.289388 -0.293,-1.049032 V 8.245015 h -0.48834 V 7.7277339 h 0.48834 V 6.5774166 Z"
         style="font-size:7.4083333px;stroke-width:0.26458332"
         id="path4648"
         inkscape:connector-curvature="0" />
      <path
         d="m 112.66133,10.860359 h 0.76326 v 0.918807 h -0.76326 z"
         style="font-size:7.4083333px;stroke-width:0.26458332"
         id="path4650"
         inkscape:connector-curvature="0" />
      <path
         d="m 115.58415,6.5774166 v 1.1503173 h 1.37098 V 8.245015 h -1.37098 v 2.199349 q 0,0.495577 0.13384,0.636654 0.13746,0.141076 0.55346,0.141076 h 0.68368 v 0.557072 h -0.68368 q -0.7705,0 -1.0635,-0.28577 -0.29301,-0.289388 -0.29301,-1.049032 V 8.245015 H 114.4266 V 7.7277339 h 0.48834 V 6.5774166 Z"
         style="font-size:7.4083333px;stroke-width:0.26458332"
         id="path4652"
         inkscape:connector-curvature="0" />
      <path
         d="m 121.2019,7.7277339 -1.46503,1.9714559 1.54099,2.0799762 h -0.78497 l -1.17925,-1.591634 -1.17926,1.591634 h -0.78496 l 1.57354,-2.119767 -1.4397,-1.9316651 h 0.78496 l 1.07436,1.4433228 1.07435,-1.4433228 z"
         style="font-size:7.4083333px;stroke-width:0.26458332"
         id="path4654"
         inkscape:connector-curvature="0" />
      <path
         d="m 122.87673,6.5774166 v 1.1503173 h 1.37097 V 8.245015 h -1.37097 v 2.199349 q 0,0.495577 0.13384,0.636654 0.13746,0.141076 0.55345,0.141076 h 0.68368 v 0.557072 h -0.68368 q -0.77049,0 -1.0635,-0.28577 -0.293,-0.289388 -0.293,-1.049032 V 8.245015 h -0.48834 V 7.7277339 h 0.48834 V 6.5774166 Z"
         style="font-size:7.4083333px;stroke-width:0.26458332"
         id="path4656"
         inkscape:connector-curvature="0" />
    </g>
  </g>
</svg>
